<svg xmlns="http://www.w3.org/2000/svg" width="223" height="50" viewBox="0 0 223 50">
  <g id="그룹_355" data-name="그룹 355" transform="translate(-280.596 -273.81)">
    <path id="패스_503" data-name="패스 503" d="M339.5,292.341a1.436,1.436,0,0,0-.253.1c-1.928.945-3.327,2.623-3.327,4.321a3.838,3.838,0,0,0,.364,1.621,1.521,1.521,0,0,0-.25.622,1.383,1.383,0,0,0-.058.378c0,.038,0,.075.006.112-.023.078-.047.162-.07.243a28.531,28.531,0,0,0-1.188,6.393,3.992,3.992,0,0,0,.184,1.286,26.935,26.935,0,0,0,.671,3.154l.149.322a4.061,4.061,0,0,0,.111.586c-.02.1.061.239.061.334a3.626,3.626,0,0,0,1.228,2.018c.123.062.251.125.386.19,1.451,1.525,4.145,1.544,5.639,1.535.34.074,1.035.224,1.327.244a3.017,3.017,0,0,0,1.318-.527l.205-.153c.2-.149.66-.486.847-.634l.009-.006.027-.022h0a5.432,5.432,0,0,0,1.9-2.053c.053-.093.1-.177.153-.266a3.757,3.757,0,0,0,.6-1.86,1.432,1.432,0,0,0-.217-.754,4.118,4.118,0,0,0,.1-.9,4.825,4.825,0,0,0-1.073-2.933c1.262-1.052,2.652-2.193,2.652-3.8a2.392,2.392,0,0,0-.152-.837,1.457,1.457,0,0,0,.038-.314,2.23,2.23,0,0,0-.425-1.309l-.014-.044a6.888,6.888,0,0,0-1.281-3.905,6.011,6.011,0,0,0-1.964-2.114,4.6,4.6,0,0,0-3.014-1.13c-.083,0-.245-.019-.245-.019a11.86,11.86,0,0,0-4.447.12m4.648-.1h0m1.232,10.541a3.289,3.289,0,0,0-2.807,1.183c-.03.044-.009.1-.009.155a1.316,1.316,0,0,0,.149.6c.043.249,1.793,1.543,1.936,2.076a28.878,28.878,0,0,1,.263,3.629c0,.034.011.064.017.1a4.121,4.121,0,0,1-1.283,1,1.471,1.471,0,0,0-.366.022,6.475,6.475,0,0,1-.752.064,13.4,13.4,0,0,1-2.506-.93l0,0a1.378,1.378,0,0,0-.193-.315.322.322,0,0,1-.025-.039,4.983,4.983,0,0,0-.22-.614c-.048-.268-.419-.893-.441-1.213-.062-.879.432-2.432-.4-3.24a1.589,1.589,0,0,1-.007-.171,8.879,8.879,0,0,1,.769-2.89,16.942,16.942,0,0,0,.588-2.068,1.5,1.5,0,0,0,.359-1.194c0-.246.421-.549.185-.923a2.271,2.271,0,0,0-.243-.446,1.485,1.485,0,0,1-.192-.645c0-.5.506-.447,1.084-.8a12.593,12.593,0,0,1,2.236-.175s.242.011.393.016a3.223,3.223,0,0,1,2.124,1.39c.257.665.053.881.266,1.7.421,1.529.617,3.08-.918,3.725" fill="#f26611"/>
    <g id="그룹_322" data-name="그룹 322" opacity="0.75">
      <g id="그룹_321" data-name="그룹 321">
        <rect id="사각형_115" data-name="사각형 115" width="13.141" height="21.674" transform="translate(335.739 293)" fill="none"/>
        <path id="패스_504" data-name="패스 504" d="M347.6,304.887c2.205-1.745,1.175-4.749-.2-8.675s-6.274-3.634-8.332-2.374-1.667,4.118-1.667,6.542a1.993,1.993,0,0,1-.294,1.552c-2.679,4.767-.932,7.462.98,10.515s7.548,2.568,9.263.919-1.961-6.737.245-8.48m-1.96,2.278c.918,2.264,1.224,6.3-1.913,6.687s-6.665-2.376-6.91-4.409a9.9,9.9,0,0,1,.295-4.9c.608-1.641,1.372-4.168,1.029-5.573s-.049-3.828,1.471-4.555,5.587-.582,6.812,1.55,2.254,5.573.883,7.221-3.333-.133-1.666,3.973" fill="#d2d955"/>
      </g>
    </g>
    <path id="패스_505" data-name="패스 505" d="M333.431,303.3c0-.058,0-.119-.009-.176a3.886,3.886,0,0,0-.746-2.443,2.24,2.24,0,0,0-2.278-.605c-1.02-.009-1.183-.114-2.211-.078l-1.048.04a5.328,5.328,0,0,1-3.444-.677,1.443,1.443,0,0,0-.38-.119,5.193,5.193,0,0,0-.658-.373c.018-.275.08-1.241.08-1.241.139-1.32.105-.921.185-2.626.224-3.054.422-6.07.422-9.119,0-1.359.41-2.4.317-3.781a2.322,2.322,0,0,0,.267-1.088,2.7,2.7,0,0,0-.015-.27,3.575,3.575,0,0,0-.172-.753,1.467,1.467,0,0,0,.029-.172c.132-.25-.249-.842-.249-1.121,0-.059,0-.119-.008-.177a1.8,1.8,0,0,0-.28-.785,2.08,2.08,0,0,0-2.4-.748v0a1.416,1.416,0,0,0-.245.08c-.378.1-.964.4-3.968,2.761-1.92,1.508-4.379,3.513-6.745,5.5-1.839,1.547-4.473,3.793-6.57,5.728-.946.873-1.683,1.591-2.191,2.134a8.864,8.864,0,0,0-.679.8,1.64,1.64,0,0,0-.633,1.292,1.8,1.8,0,0,0,.011.188,2.294,2.294,0,0,0,.209.725,3.831,3.831,0,0,0,.235.434,1.645,1.645,0,0,0,1.566.839,19.524,19.524,0,0,0,2.23,1.128c1.583.7,3.61,1.466,5.86,2.21l1.951.805.249.076.267.066a11.261,11.261,0,0,0,3.009,1.088l.024.011c1.044.457.285.342,1.529.567-.072.478-.806,5.405-.806,5.405a17.841,17.841,0,0,0-.125,6.7c0,.1.383,1.259.391,1.335.085.81,1.235,1.262,1.7,1.434a1.537,1.537,0,0,0,.344.081,1.966,1.966,0,0,0,1.846-.336,1.78,1.78,0,0,0,.594-1.525,1.724,1.724,0,0,0-.051-.258,39.233,39.233,0,0,0,.466-4.109c.166-1.927.393-4.556.8-7.618.069-.01.147-.021.2-.031a10.419,10.419,0,0,0,6.253,1.008l1.027-.074,1.712-.1a2.519,2.519,0,0,0,.88-.066,1.623,1.623,0,0,0,1.213-1.589v-.034a2.055,2.055,0,0,0,.036-.352m-14.86-8.705-.069.938-.117,1.985s-.063.523-.088.735l-.026.019c-.333-.066-.675-.126-1.027-.183-.4-.067-.829-.142-1.242-.229-.594-.258-1.357-.046-2.174-.271l-.13-.087a1.173,1.173,0,0,0-.355-.176c-.5-.153-1-.31-1.5-.476-1.777-.747-3.263-1.416-4.323-1.894q.349-.257.745-.56c1.356-1.04,3.121-2.482,4.975-4.067,1.822-1.558,3.545-3.095,4.85-4.325l.562-.541c.018.923.036,2.129.036,3.483,0,1.744-.029,3.727-.119,5.649" fill="#902e87"/>
    <path id="패스_506" data-name="패스 506" d="M309.1,279.443c.18-.8-7.45-2.27-12.216,2.5-4.818,3.182,6.305,3.937,10.279,1.289,4.549-3.683-2.748-10.931-5.282-8.735-1.1,1.914-2.962,5.712.365,9.417" fill="#0096db"/>
    <g id="그룹_324" data-name="그룹 324" opacity="0.5" style="mix-blend-mode: multiply;isolation: isolate">
      <g id="그룹_323" data-name="그룹 323">
        <rect id="사각형_116" data-name="사각형 116" width="12.91" height="10.608" transform="translate(296.469 274.884)" fill="none"/>
        <path id="패스_507" data-name="패스 507" d="M309.379,279.281c-.186-.021-.13,0-.373-.013-.1-.006-.226-.006-.369-.012-.115,0-.236-.166-.376-.169-.119,0-.247-.05-.384-.05s-.247.188-.381.189-.239.009-.367.012-.254,0-.387,0-.248.047-.381.054-.258-.126-.384-.116-.262-.044-.393-.032-.233.148-.36.164-.259-.034-.387-.017-.237.056-.36.074-.236.076-.361.1-.27-.089-.395-.065-.217.2-.343.23-.272-.043-.4-.014-.24.045-.358.073-.243.043-.363.075-.22.123-.34.158-.255.015-.375.052-.188.218-.307.26-.255.024-.375.066-.267.007-.384.054-.164.216-.273.261-.258,0-.366.052-.157.216-.264.268-.281-.03-.387.026-.214.1-.32.162-.191.146-.295.205-.259.043-.361.106-.153.173-.246.236-.144.178-.233.243c-.113.08-.152.236-.248.312s-.251.1-.338.179-.239.131-.315.22a2.1,2.1,0,0,0-.238.3,1.273,1.273,0,0,0-.086.375.935.935,0,0,0-.041.369.95.95,0,0,0,.188.324,1.308,1.308,0,0,0,.272.239c.088.076.11.254.224.322s.282-.013.4.043.2.138.321.18.22.115.346.151.217.152.342.181.255-.009.379.013.254.03.384.048.234.133.362.148.271-.16.4-.149.236.105.361.111.253-.087.38-.082.251.191.381.191.26-.013.391-.014.242-.1.366-.107.24-.108.366-.115.266.209.393.2.239-.14.366-.154.263.057.39.04.247-.073.374-.093.248-.07.374-.094.241-.01.357-.036.239-.033.354-.058.209-.215.332-.25.225-.066.339-.1.253.019.364-.019.222-.124.341-.167.272.049.378,0,.235-.1.348-.148.2-.124.3-.174.109-.269.206-.326.244-.022.336-.079c.117-.075.276-.1.376-.174s.075-.3.162-.384.229-.137.307-.236.286-.145.349-.258a2.91,2.91,0,0,0,.141-.377,2.829,2.829,0,0,0,.147-.369c.028-.124-.1-.279-.086-.407a3.3,3.3,0,0,0-.021-.383c0-.121-.055-.233-.068-.356s.06-.258.035-.382-.108-.234-.143-.361.04-.269,0-.386-.063-.248-.114-.365-.182-.2-.24-.318-.034-.283-.1-.4-.278-.126-.345-.231.011-.311-.062-.414-.334-.076-.412-.178.018-.345-.065-.444-.315-.05-.395-.139-.085-.252-.168-.338-.206-.141-.295-.224-.175-.171-.266-.251-.176-.173-.27-.249-.117-.255-.215-.325-.272-.043-.372-.106-.2-.142-.3-.2-.26-.055-.374-.108-.222-.107-.336-.148-.208-.142-.321-.167a2.1,2.1,0,0,0-.372.008c-.121-.008-.251-.17-.362-.154s-.164.246-.267.29a.989.989,0,0,0-.289.121c-.091.079-.126.21-.216.318s-.3.083-.38.2-.113.227-.179.339-.067.252-.127.368-.067.246-.12.365-.115.22-.162.339-.167.214-.209.339-.132.223-.17.345,0,.268-.032.394-.1.231-.125.353-.087.239-.111.365-.033.254-.053.38-.044.255-.059.384.131.275.12.405.008.244,0,.367-.078.241-.08.365-.014.248-.012.372.014.249.021.373-.05.254-.038.379.01.252.027.376.068.246.091.37.09.239.117.362.116.228.148.351-.067.265-.031.376.166.192.205.3-.073.283-.027.393.182.181.233.288.148.192.205.3.04.236.1.333" fill="#28bef3"/>
      </g>
    </g>
    <g id="그룹_326" data-name="그룹 326" opacity="0.65">
      <g id="그룹_325" data-name="그룹 325">
        <rect id="사각형_117" data-name="사각형 117" width="14.92" height="11.868" transform="translate(294.937 273.81)" fill="none"/>
        <path id="패스_508" data-name="패스 508" d="M300.9,280.752a3.732,3.732,0,0,1-.008-.476,1.089,1.089,0,0,1-.07.25.331.331,0,0,0,.078.226" fill="#77d0f7"/>
        <path id="패스_509" data-name="패스 509" d="M300.908,279.814l0-.087-.018-.074Z" fill="#77d0f7"/>
        <path id="패스_510" data-name="패스 510" d="M300.857,278.952a2.688,2.688,0,0,0,.008.442,1.745,1.745,0,0,0-.008-.442" fill="#77d0f7"/>
        <path id="패스_511" data-name="패스 511" d="M300.809,279.641c.03-.054.06-.08.083.008v0l-.027-.26a1.205,1.205,0,0,1-.056.248" fill="#77d0f7"/>
        <path id="패스_512" data-name="패스 512" d="M300.809,279.641c-.028.052-.055.132-.071.16a1.156,1.156,0,0,0,.071-.16" fill="#77d0f7"/>
        <path id="패스_513" data-name="패스 513" d="M300.107,279.422c-.022-.084.176-.064.131-.238-.027-.2-.064-.39-.093-.574l-.021-.139-.009-.068,0-.035,0-.017h0c.01-.064-.021.14.021-.143h0v0l0-.01a2.724,2.724,0,0,1,.065-.271c.007-.178.3-.377.3-.553.062-.405.1-1.474-.059-.885-.118.445-.206.812-.292,1.171l-.063.268-.031.134-.016.067-.008.034,0,.016h0v0c-.012.075.024-.172-.025.171h0v.013c.01.186.021.376.029.583.1.68.144,1.29.279,2.019a4.3,4.3,0,0,1,.023.552c.012-.238.025-.481.035-.75.022-.387-.21-.787-.263-1.345" fill="#77d0f7"/>
        <path id="패스_514" data-name="패스 514" d="M301.718,284.153c-.06-.067-.181-.2-.181-.2a2.45,2.45,0,0,0-.534-1.072l0,.205c.119.2.18.2.122,0a4.6,4.6,0,0,0,.539,1.268c.035-.05.093-.071.057-.2" fill="#77d0f7"/>
        <path id="패스_515" data-name="패스 515" d="M301.8,284.582l-.141-.231-.01.018.152.222Z" fill="#77d0f7"/>
        <path id="패스_516" data-name="패스 516" d="M301.025,277.188c.079-.276.16-.547.24-.815a3.21,3.21,0,0,1,.453-.663l.5-.646.246-.317.123-.158c-.1-.008.088,0,.117,0a.346.346,0,0,1,.25-.059,1.239,1.239,0,0,0,.25.068l.467.008.165-.015,0,0c.088-.022.064-.053.01-.081a1.058,1.058,0,0,1-.164-.07c.03.017.11.043.164.07a1.239,1.239,0,0,0,.25.055c.123.007.333-.063.4.034-.086-.062-.3,0-.4-.034l-.262.029-.077.018.532.011.134,0c-.088-.034.039.033.049.045l.221.146c.072.036.141.072.2.1a1.183,1.183,0,0,1,.548.384l.159.106-.021-.035c.02.02.036.037.049.052.18.149.543.287.577.445.137.114.285.223.418.344l.034.2a.71.71,0,0,1,.265.171c-.043-.149-.075-.293-.118-.411-.034-.2-.406-.191-.392-.473-.014.281.358.269.392.473.043.118.075.263.118.411a1.879,1.879,0,0,1,.449.717,1.281,1.281,0,0,1-.449-.717.71.71,0,0,0-.265-.171l-.034-.2c-.133-.121-.281-.23-.418-.344q.467.627.951,1.272a23.151,23.151,0,0,1,1.117,2.085l.037,1.256.02.629.006.155v.035c-.071.212.1-.286.078-.235l0,0-.025.029-.051.06-.2.241-.821.965-.207.244-.051.059-.026.032-.013.014v0c-.129.1.174-.129.141-.106h0l-.01,0-.148.061-.6.245-1.213.491a7.877,7.877,0,0,1-1.226.278c-.442.075-1.052.207-1.344.228l-1.434-.027-.709-.017-.176,0c.054,0-.085-.013-.118-.02l-.349-.045-1.385-.18-.343-.046-.085-.012-.043,0-.021,0h0c-.077-.026.658.222.347.115l-.005,0-.009-.008-.138-.1-.553-.392c-.37-.261-.737-.512-1.106-.761l-.07-.046-.034-.025-.017-.011,0,0c-.056-.232.479,2.018.252,1.065v0l.006-.007.087-.142.171-.283.341-.564.34-.564.171-.281.042-.07.011-.018.006-.009,0,0-.358.326h0l.038-.017.151-.068a25.452,25.452,0,0,1,2.4-1.006q.64-.211,1.3-.4l.331-.094.167-.047.041-.012.021-.006h.012l0,0c.124-.038-.166.053-.136.046l.006,0,.086-.011.694-.08c.357-.042.785-.118,1.247-.213l.352-.076c-.115.024.178-.02.249-.027l.749-.106.745-.116.363-.057.177-.03.043-.007.023,0-.248.011h.02l.088,0,1.234.044c1.862-.226.953-1.12.867-1.171a3.314,3.314,0,0,0-1.7-.574c-.855-.106-1.5.115-2.722.036.8.007.527.163-.137.283a8.623,8.623,0,0,1-2.52.3,8.416,8.416,0,0,0-1.873.343l-.459.146a3.108,3.108,0,0,0-.306.114l-.226.1q-.452.207-.912.439c-.3.152-.612.31-.92.47l-.058.03-.029.015,0,0h0c-.218.2.486-.445-.491.446l-.005.007-.007.014-.061.113-.124.229-.249.454c-.167.3-.338.6-.512.89l-.134.218-.016.025-.009.015,0,.006v0h0c.152.647-.344-1.442.343,1.451l.052.036.1.072.4.3c.265.2.548.39.849.584l.461.3.059.038.015.01,0,0h0l.549.184h.015l.035,0,.144.01.293.025c.511.069,1.018.129,1.522.182l.379.037c.363.011.319,0,.5.006l.754-.007.752-.016.376-.011.188-.007c.107-.01-.238.031.242-.028h.008l.012,0,.022,0,.047-.01.091-.02,1.466-.343.367-.088.184-.043.091-.023.046-.011.023,0h.006c-.2.061.269-.086.223-.07l0,0,.009,0,.691-.312,1.4-.629.043-.018.023-.012h.005c-.392.291.538-.4.442-.33h0l.007-.01.06-.075.12-.151.242-.3.493-.605.25-.3.126-.152.064-.076v0c.516-1.541.143-.429.259-.774v-.006l0-.013v-.025l0-.05-.031-.8c-.015-.283-.04-.558-.072-.824l-.052-.394,0-.025,0-.011v-.009c-.257-.914-.072-.253-.129-.458h0l0,0-.027-.04-.055-.081-.112-.16c-.3-.421-.6-.816-.869-1.213l-.133-.228-.016-.029,0-.008h0v0c-.161-.244-.044-.067-.081-.124h0l-.01-.014-.041-.052-.081-.106-.311-.428c-.2-.281-.388-.553-.564-.775l-.209-.257-.052-.062,0,0h0v0c-.479-.419-.132-.116-.239-.21l0,0-.009-.006-.017-.01-.035-.018-.138-.079q-.277-.155-.541-.291c-.356-.184-.7-.35-1.04-.5.363.2.681.367,1.009.541.162.089.329.177.5.272l.133.074.068.036.035.02.009,0h0c-.2-.177.276.244.227.2h0l0,0,.012.016.216.251c.2.237.08.192-.123.054-.05-.035-.105-.075-.164-.119l-.088-.068-.011-.008-.005,0h0l-.175-.155h-.005l-.026-.009L306.5,275c-.141-.05-.276-.1-.371-.141-.172-.054-.291-.384-.463-.435a3.425,3.425,0,0,0-.5-.248l-.267-.108-.136-.054-.009,0,0,0,0,0c-.616-.17-.169-.047-.309-.084h0l-.019,0-.037,0-.075.011c-.174.046-.155-.152-.242-.129-.557.046-.986.3-1.343.248l-.1-.011-.049-.006-.024,0h0v0h0c-.168.084.375-.185-.376.187l0,0,0,.006-.008.007-.132.139-.254.262a3.443,3.443,0,0,0-.283.355l-.142.269a.419.419,0,0,1,.249.017c-.1.109-.254.248-.353.359.1-.111.258-.25.353-.359a.419.419,0,0,0-.249-.017c-.086.162-.177.331-.272.5a4.068,4.068,0,0,0-.2.378l-.047.3c-.065.4-.135.8-.205,1.181l.02-.006a4.585,4.585,0,0,1,.506-1.279c-.1.182-.146.143-.09-.084a.674.674,0,0,0,.1-.107l.1-.043a3.669,3.669,0,0,1-.418,1.142s-.006.178-.011.268c-.063.115-.121.09-.179.1l-.062.263a5.115,5.115,0,0,0,.443-.691" fill="#77d0f7"/>
        <path id="패스_517" data-name="패스 517" d="M304.109,274.568l-.222.015.447.012c.054-.064.229.123.338.17a.576.576,0,0,0-.216-.21,1.112,1.112,0,0,0-.346.013" fill="#77d0f7"/>
      </g>
    </g>
    <path id="패스_518" data-name="패스 518" d="M326.782,314.21c.175,1.549.44,4.737-.661,5.95-1.726,1.647.02,3.9,1.369,2.695a10.092,10.092,0,0,1,5.4-3.233c2.387,1.052,3.389-.821,1.426-3.256a7.032,7.032,0,0,1-5.415-4.18c-1.084-1.164-2.778.192-2.113,2.024" fill="#00aef0"/>
    <g id="그룹_328" data-name="그룹 328" opacity="0.5" style="mix-blend-mode: multiply;isolation: isolate">
      <g id="그룹_327" data-name="그룹 327">
        <rect id="사각형_118" data-name="사각형 118" width="9.79" height="10.773" transform="translate(326.056 312.422)" fill="none"/>
        <path id="패스_519" data-name="패스 519" d="M327.423,314.17c.033.12-.018.264.011.387s.158.212.182.331-.116.269-.1.39.068.238.085.362.014.248.027.372.184.219.194.335-.048.243-.042.361-.123.241-.121.359.087.235.084.354.013.24.007.359.058.245.047.363-.153.223-.169.342-.073.225-.094.341-.038.23-.065.346.028.249,0,.361-.1.217-.134.327-.139.2-.184.3-.026.242-.077.347-.017.258-.076.359-.216.144-.282.24-.185.124-.251.209c-.086.11-.04.3-.1.4s-.181.2-.22.313a1.463,1.463,0,0,0-.085.347.9.9,0,0,0,.051.367.631.631,0,0,0,.194.306.661.661,0,0,0,.34.144c.107.01.209-.088.335-.123.107-.03.264.03.383-.037a2.757,2.757,0,0,0,.269-.243c.077-.06.218-.067.3-.147s.174-.168.271-.255.14-.21.24-.293.187-.177.294-.258.2-.154.3-.227.252-.09.361-.161.151-.224.257-.289.2-.161.31-.225.29,0,.4-.062.246-.08.361-.137.2-.18.318-.23.221-.092.332-.135.238-.042.351-.079.242-.068.364-.1.2-.184.314-.206.254-.027.376-.042.25-.011.371-.014a3.347,3.347,0,0,1,.341-.025c.11.009.221.058.328.077a2.768,2.768,0,0,0,.356.091c.13.009.245-.076.36-.086a1.85,1.85,0,0,0,.358,0c.119-.034.267,0,.363-.052.112-.066.1-.258.178-.344s.3-.1.344-.206a1.138,1.138,0,0,0,.071-.362c0-.111-.19-.193-.228-.3s.066-.288-.005-.387-.271-.052-.363-.126a1.456,1.456,0,0,0-.245-.212c-.092-.05-.163-.159-.273-.2s-.214-.11-.332-.166-.2-.119-.3-.179-.209-.124-.32-.192-.243-.074-.347-.148-.214-.108-.312-.181-.224-.115-.322-.192-.191-.139-.283-.214-.171-.169-.26-.248-.1-.256-.185-.338-.15-.2-.238-.281-.294-.056-.381-.144-.059-.264-.137-.348-.13-.191-.208-.273-.269-.069-.344-.155-.137-.186-.21-.269-.117-.22-.191-.311-.2-.151-.27-.241-.171-.165-.234-.254.009-.253-.041-.333a2.8,2.8,0,0,0-.236-.307,2.178,2.178,0,0,0-.291-.254c-.1-.08-.28-.019-.386-.065a1.181,1.181,0,0,0-.322-.1c-.131-.017-.268-.193-.39-.169a1.285,1.285,0,0,0-.341.191c-.1.057-.156.185-.236.273a1.156,1.156,0,0,0-.151.309,1.2,1.2,0,0,0-.143.324,1.592,1.592,0,0,0,.04.347,1.765,1.765,0,0,0,.064.3" fill="#28bef3"/>
      </g>
    </g>
    <g id="그룹_330" data-name="그룹 330" opacity="0.65">
      <g id="그룹_329" data-name="그룹 329">
        <rect id="사각형_119" data-name="사각형 119" width="11.577" height="12.337" transform="translate(324.627 311.473)" fill="none"/>
        <path id="패스_520" data-name="패스 520" d="M327.627,312.245l.292.141a.583.583,0,0,1-.119-.131c-.056-.05-.107-.026-.172-.01" fill="#77d0f7"/>
        <path id="패스_521" data-name="패스 521" d="M328.188,312.52l.052.024.052,0Z" fill="#77d0f7"/>
        <path id="패스_522" data-name="패스 522" d="M328.723,312.7a1.145,1.145,0,0,0-.266-.111.748.748,0,0,0,.266.111" fill="#77d0f7"/>
        <path id="패스_523" data-name="패스 523" d="M328.332,312.474c.02.043.022.078-.039.074h0l.165.045a.544.544,0,0,1-.124-.119" fill="#77d0f7"/>
        <path id="패스_524" data-name="패스 524" d="M328.332,312.474c-.02-.04-.057-.086-.067-.109a.5.5,0,0,0,.067.109" fill="#77d0f7"/>
        <path id="패스_525" data-name="패스 525" d="M328.74,311.887c.06,0-.031.179.09.184l.1.02.048.007.024,0v0h0c-.031-.024.273.2.144.107h0l0,0,.011.006.154.112a1.462,1.462,0,0,1,.278.242c.107.056.06.339.165.394.216.165.86.505.588.209-.208-.219-.387-.4-.559-.563l-.26-.256-.134-.131-.067-.067-.035-.037-.018-.019,0,0h0c-.4-.3-.112-.084-.2-.153h0l-.012,0c-.429-.105-.851-.188-1.285-.305a1.989,1.989,0,0,1-.321-.166c.127.09.26.184.408.283.186.145.54.023.887.13" fill="#77d0f7"/>
        <path id="패스_526" data-name="패스 526" d="M326.7,313.286c0-.063-.014-.184-.014-.184a1.084,1.084,0,0,0,.261-.747l-.127.085c-.034.15.012.183.093.066a2.022,2.022,0,0,0-.378.83c.056,0,.112.021.164-.051" fill="#77d0f7"/>
        <path id="패스_527" data-name="패스 527" d="M326.5,313.509l.037-.172h-.019l-.024.177Z" fill="#77d0f7"/>
        <path id="패스_528" data-name="패스 528" d="M329.565,313.427c.249.285.488.565.719.839.3.243.563.443.838.665.065,0,.121-.014.164.049a.632.632,0,0,0,.088.156l.235.19.1.052h0c.059.016.064-.019.052-.063a.8.8,0,0,1-.042-.122c.006.025.032.078.042.122a.578.578,0,0,0,.1.144,1.094,1.094,0,0,1,.234.167.737.737,0,0,1-.234-.167l-.151-.08-.051-.017c.186.147.342.293.55.439.047.023.093.047.131.062.154.064.309.129.346.266l.1.069-.011-.028.029.041.43.3c.115.028.238.048.352.083l.048.148a.357.357,0,0,1,.215.018c-.048-.1-.088-.2-.135-.281-.049-.147-.324.036-.346-.2.022.236.3.053.346.2.047.077.087.18.135.281a.39.39,0,0,1,.306.391.445.445,0,0,1-.15-.158.876.876,0,0,1-.155-.234.357.357,0,0,0-.215-.018l-.048-.148c-.113-.036-.236-.055-.352-.083.242.171.651.44.768.54.3.483.611.95.92,1.412l.058.086.029.043.007.011,0,0c-.115.438.157-.6.128-.487h0l-.007,0-.022.009-.188.079-.379.159-.752.317-.377.16c-.027.014-.205.083-.109.05l-.2.034-.818.134-.833.133-.211.033-.053.009c-.269.089-.1.039-.174.063l-.1.051-.389.2c-.593.323-1.06.464-1.741.9-.5.362-.99.71-1.485,1.05l-.182.128-.023.017-.012.007,0,0c-.2.114.271-.155.221-.127h0l-.006,0-.054.015-.106.027-.423.118-.829.253-.1.034-.014,0-.005,0h0c2.114,1.6.586.441,1.059.8v-.032l0-.054.011-.218.021-.434.042-.869.006-.11v-.008c-.108.548-.029.152-.053.272l0,0,.005-.013.01-.025.021-.051.08-.2.168-.4c.113-.267.231-.533.358-.8s.259-.529.4-.794l.006-.012,0,0c-.013.073.126-.659.068-.351h0v-.007l0-.028.009-.057.019-.111.041-.225.094-.455a6.724,6.724,0,0,0,.1-.825c.011-.154.019-.315.024-.479l.007-.247,0-.124v-.035h0c.025.266-.036-.367-.029-.3v0l0-.007,0-.014-.013-.062c-.144-.649-.311-1.29-.416-1.729-.573-1.114-1.265-.319-1.3-.254a1.672,1.672,0,0,0-.232,1.211c.024.214.062.45.087.729.014.141.024.291.028.458v.076c-.028-.3-.008-.084-.014-.151v0l0,.016-.007.03-.032.129-.074.271c.258-1.026.449.773-.063,1.737a2.688,2.688,0,0,0-.13.27l-.054.139h0c-.014.071.118-.62.062-.328v0l0,0-.006.008-.011.014-.023.03-.046.059a3.833,3.833,0,0,0-.324.516,8.143,8.143,0,0,0-.49,1.2l-.1.323-.027.079-.013.041-.006.021v0h0c.066-.334-.091.457-.075.376v0l0,.011,0,.171.013.685c0,.229,0,.456-.013.68l-.008.167v.009c-1.283-.969,1.744,1.32,1.434,1.084l.01,0,.019-.007.039-.01.079-.022.315-.081a5.773,5.773,0,0,0,.636-.193l.333-.119.087-.031.011,0h.008c-.318.178.432-.248.356-.205h0l.019-.016.034-.03.148-.121c.55-.377,1.068-.777,1.57-1.189l.023-.019.012-.011,0,0c.173-.119-.235.162-.192.136l0,0,.007,0,.052-.029.106-.058.212-.119.42-.24.837-.5.208-.124.053-.032.026-.017.012-.008.006,0h0l-.358.129h0l.119-.025.476-.109.964-.211.489-.1.062-.014h.007l0,0h0c-.226.072.31-.1.254-.078l.015-.008.029-.013.114-.053.23-.105c.309-.143.621-.281.943-.416.167-.076.326-.16.478-.249l.028-.019.013-.008.008,0,0,0h0c.885-3.375.245-.935.443-1.689h0l-.045-.049-.089-.094-.181-.185c-.242-.239-.488-.458-.711-.686a2.943,2.943,0,0,1-.2-.281l-.048-.071-.023-.039,0,0v0c-.112-.1.247.234-.249-.234h0l-.009-.007-.017-.011-.138-.1c-.181-.137-.351-.27-.509-.369a7.384,7.384,0,0,0-1.353-.657c.355.185.8.4,1.3.672.345.2-.368.071-.621-.02-.119-.021-.157-.3-.277-.325a1.434,1.434,0,0,0-.334-.148c-.038-.007-.165-.065-.132-.029l-.18-.078c-.117-.032.009-.184-.048-.2-.316-.18-.686-.143-.839-.325-.123-.131-.231-.25-.338-.368a1.578,1.578,0,0,0-.229-.188l-.186-.079a.492.492,0,0,1-.051.225c-.013-.013-.124-.127-.059-.076-.028-.053-.055-.106-.083-.148.028.042.055.1.083.148-.065-.051.046.063.059.076a.492.492,0,0,0,.051-.225,8.984,8.984,0,0,1-1.163-.877l-.008.016a2.059,2.059,0,0,1,.5.762c-.055-.13,0-.154.106-.045l0,.155a1.077,1.077,0,0,1-.489-.619s-.108-.055-.161-.083c-.035-.083.014-.12.043-.169l-.128-.125a2.568,2.568,0,0,0,.17.543" fill="#77d0f7"/>
        <path id="패스_529" data-name="패스 529" d="M331.858,315.466c-.037-.02-.079-.045-.123-.072.154.123.286.247.458.371a.6.6,0,0,0-.335-.3" fill="#77d0f7"/>
      </g>
    </g>
    <path id="패스_530" data-name="패스 530" d="M332.372,281.481c-.045,1.477-.266,3.243-.911,1.654-.218.39-3.474-2.147-2.233,1.017a1.622,1.622,0,0,0,2.426,1.392c1.183.918,1.274,1.772,2.128,1.025-.3.041.034,1.632-.935,3.708-1.324,2.5-.724,3.783,1.138,2.072,1.462-1.554,5.127-7.767-.22-13.417-2.078-1.118-3.493-1.135-2.855-.651.973,2.275,1.337,5.056,1.463,3.2" fill="#5e3c8f"/>
    <g id="그룹_332" data-name="그룹 332" opacity="0.5" style="mix-blend-mode: multiply;isolation: isolate">
      <g id="그룹_331" data-name="그룹 331">
        <rect id="사각형_120" data-name="사각형 120" width="7.733" height="14.634" transform="translate(329.568 278.822)" fill="none"/>
        <path id="패스_531" data-name="패스 531" d="M333.223,283.284a.972.972,0,0,1-.062.407,1.16,1.16,0,0,1-.243.341c-.1.086-.321-.033-.446-.008s-.219.112-.336.066c-.068-.027-.186-.074-.337-.122-.105-.031-.22-.092-.349-.123-.113-.028-.234-.049-.356-.069s-.254.049-.376.04a2.258,2.258,0,0,0-.349.007c-.129.009-.255-.042-.364,0s-.267.056-.344.142-.058.228-.084.359a1.114,1.114,0,0,0,.005.345,1.816,1.816,0,0,0,.064.325,2.476,2.476,0,0,0,.089.3c.045.108.013.257.067.365s.266.113.324.209-.067.317,0,.411.183.163.255.25.294.049.373.126a2.651,2.651,0,0,0,.228.231,2,2,0,0,0,.3.144c.107.058.146.242.255.269a1.092,1.092,0,0,0,.336.012c.105-.007.173-.12.277-.167s.121-.125.208-.2a1.342,1.342,0,0,1,.361-.144,1.2,1.2,0,0,1,.366-.145c.118,0,.247.12.351.167s.122.213.206.294.275.083.334.184-.043.25-.013.344a1.21,1.21,0,0,1,.07.325,1.853,1.853,0,0,1-.067.332c-.013.105.053.227.022.353-.028.105.11.268.07.389-.033.1-.325.12-.368.236-.039.1.011.242-.035.354s.034.257-.016.369-.122.187-.171.3-.058.211-.106.314-.164.147-.209.242c-.056.119.019.286-.029.4s-.267.158-.307.266c-.047.126.057.291.023.405-.04.132-.079.246-.1.365a2.809,2.809,0,0,0-.088.356,1.471,1.471,0,0,0,.015.354.62.62,0,0,0,.135.28c.067.112.088.142.2.172a.472.472,0,0,0,.286-.016c.1-.027.245.044.36-.022.093-.053.1-.232.2-.31s.251-.048.339-.134c.07-.069.123-.156.194-.236s.174-.15.259-.252c.07-.085.126-.193.205-.294s.156-.176.232-.278.131-.192.2-.291.142-.185.21-.287.236-.141.3-.247.085-.233.148-.339-.028-.281.03-.388.293-.116.348-.225.125-.213.178-.324-.063-.3-.014-.412.254-.153.3-.265-.045-.269-.007-.382.127-.21.162-.325.146-.212.175-.329-.117-.273-.092-.393.154-.216.173-.336.054-.238.068-.359,0-.246.006-.368.037-.244.039-.367-.121-.241-.126-.365.13-.239.119-.355-.214-.209-.23-.324,0-.232-.02-.348.148-.271.121-.385-.116-.218-.149-.334-.082-.226-.121-.34-.016-.255-.062-.369-.113-.2-.162-.309-.068-.229-.122-.334-.314-.1-.372-.2-.08-.223-.143-.326,0-.266-.062-.363-.106-.206-.173-.3-.221-.129-.293-.22-.04-.25-.111-.336-.344,0-.418-.086-.094-.212-.172-.3-.109-.182-.183-.259c-.092-.094-.087-.28-.176-.366s-.331-.011-.422-.088-.176-.163-.268-.233c-.106-.083-.094-.32-.2-.388a3.709,3.709,0,0,0-.331-.181c-.107-.06-.323.1-.422.055-.115-.053-.133-.321-.238-.356-.121-.04-.275.061-.379.046a1.8,1.8,0,0,0-.36-.077c-.132.019-.214.145-.3.208s-.094.162-.131.279c-.034.1-.185.186-.17.315a1.384,1.384,0,0,0,.076.341,1.919,1.919,0,0,0,.082.317c.06.1.164.179.222.279s.283.135.348.241.13.193.191.29-.045.327.021.43.146.208.209.308.09.236.149.335.269.122.324.219.118.2.164.3c.055.111.187.19.218.284a.951.951,0,0,1-.007.318" fill="#28bef3"/>
      </g>
    </g>
    <g id="그룹_334" data-name="그룹 334" opacity="0.65">
      <g id="그룹_333" data-name="그룹 333">
        <rect id="사각형_121" data-name="사각형 121" width="8.897" height="15.771" transform="translate(328.54 277.467)" fill="none"/>
        <path id="패스_532" data-name="패스 532" d="M331.163,279.148l.258-.275a.691.691,0,0,1-.177.1c-.071.048-.067.107-.081.179" fill="#846bad"/>
        <path id="패스_533" data-name="패스 533" d="M331.661,278.619l.046-.047.026-.053Z" fill="#846bad"/>
        <path id="패스_534" data-name="패스 534" d="M332.062,278.1a1.822,1.822,0,0,0-.218.253,1.009,1.009,0,0,0,.218-.253" fill="#846bad"/>
        <path id="패스_535" data-name="패스 535" d="M331.68,278.459c.048-.011.083-.007.054.056v0l.111-.165a.672.672,0,0,1-.164.105" fill="#846bad"/>
        <path id="패스_536" data-name="패스 536" d="M331.68,278.459c-.047.013-.107.041-.132.048a.9.9,0,0,0,.132-.048" fill="#846bad"/>
        <path id="패스_537" data-name="패스 537" d="M331.292,277.9c.027-.062.158.072.213-.051l.06-.1.028-.049.014-.024.007-.011,0-.008h0c.24-.023-.537.052.538-.054l0,0,0,0,.2.092a2.253,2.253,0,0,1,.366.214c.13.045.17.333.3.378.277.142,1.061.413.683.146-.289-.2-.53-.355-.765-.506l-.353-.226-.183-.119-.093-.06-.048-.032-.01-.009h-.005c.666-.065-.91.088-.746.071v0l-.005,0-.019.023c-.281.426-.539.848-.835,1.279-.045.055-.093.108-.142.158l-.075.071v0h0c0-.09-.018.785-.01.415h0l0,0,0,.006.008.011.014.021.029.043-.035-.058-.008-.016-.005-.007,0,0h0c.019-.81.005-.225.01-.405v0l.027-.021.108-.088.227-.188c.215-.163.25-.563.5-.9" fill="#846bad"/>
        <path id="패스_538" data-name="패스 538" d="M332.162,281.111c-.047-.052-.141-.151-.141-.151.026-.328-.277-.608-.492-.777l.013.162c.119.129.173.112.106-.035.167.333.276.661.442.958.036-.042.091-.062.072-.159" fill="#846bad"/>
        <path id="패스_539" data-name="패스 539" d="M332.191,281.446l-.1-.175-.012.013.112.17Z" fill="#846bad"/>
        <path id="패스_540" data-name="패스 540" d="M332.96,278.774a11.792,11.792,0,0,1,.994.773c.27.315.532.624.787.93.069.023.129.028.167.1a.657.657,0,0,0,.073.184c.079.112.149.146.19.263l.07.1v0c.05.048.068.019.074-.03a.714.714,0,0,1,0-.14c0,.027,0,.092,0,.14a.688.688,0,0,0,.038.189,1.721,1.721,0,0,1,.159.293,1,1,0,0,1-.159-.293l-.113-.161-.042-.044.342.721.09.14a.7.7,0,0,1,.194.465l.06.128,0-.032.008.055.063.137.016.034,0,.009c-.03-.088-.007-.019-.014-.038l0,.019.01.074.043.3c.059.123.127.245.178.372,0,0-.044.1-.067.15a.482.482,0,0,1,.133.2c.036-.117.08-.225.1-.321.068-.151-.241-.262-.1-.451-.146.189.163.3.1.451-.02.1-.064.2-.1.321a1.125,1.125,0,0,1,.025.638.78.78,0,0,1-.025-.638.482.482,0,0,0-.133-.2c.023-.049.067-.15.067-.15-.051-.128-.119-.25-.178-.372.055.389.113.784.17,1.182a8.708,8.708,0,0,1-2.475,6.736l-.392.386-.024.023,0,0c-.205.117.279-.158.228-.129h-.005l-.01,0-.016,0-.067.012-.135.024-.269.048-1.068.18-.065.013-.017,0h-.005c.283.266-.637-.6.635.6h0l0-.009.007-.033.031-.129.061-.258.125-.511.254-1.012.062-.25.005-.016c-.142.407-.039.112-.07.2h0l0,0,0-.007.018-.027.034-.054.068-.109.264-.436.257-.436.125-.217.062-.109.031-.055,0-.006c-.073.222.1-.306.083-.253v0l0-.016.005-.032.155-.981.076-.49.019-.121.009-.06.005-.031c-.236-.378.531.845-.532-.851h0l0,0h-.008l-.014,0-.237-.082-.942-.339-.47-.177c-.418-.108-.4-.094-.621-.149-.33-.077-.661-.16-.994-.255l-.062-.018-.015,0h-.005l.639.4,0,0,0-.007-.015-.028-.06-.114-.121-.232-.232-.47c-.06-.121-.131-.252-.211-.388l-.127-.21-.068-.111-.034-.053,0,0c.353,1.938.1.538.177.97v0l0-.009.005-.015.01-.032c.1-.337.2-.7.3-1.069l.07-.273.016-.069.008-.034v0h0c-.644.382,1.442-.861-1.445.859h0l.009,0,.017,0,.138.03.533.113c.344.071.657.135.912.189a2.108,2.108,0,0,0,.244-.009l.055,0h0c-.2.04,1.715-.36.907-.191h0l0-.006.008-.011.014-.021.048-.084a.9.9,0,0,0,.106-.291.456.456,0,0,0-.1-.391.812.812,0,0,0-.488-.237l-.2,0-.093.007-.046,0-.021,0-.011,0h-.007c.079-.015-.177.039.175-.036h0l0,0a1.781,1.781,0,0,0-.274-.2,3.125,3.125,0,0,0-.629-.267c-.235-.076-.5-.149-.8-.255l-.058-.018-.029-.011-.014,0,0,0c.14-.083-1.226.731-.648.388h0l0,.008-.046.118-.105.249c-.075.172-.163.355-.268.553.262-.542.314-.3.208.188-.027.124-.063.262-.108.409h0c.031.169-.068-.377.068.378l0,0,0,.006.008.011.016.026.03.05.063.1.12.215a3.716,3.716,0,0,1,.35.9c.021.108.049.215.08.323l.025.079,0,.009,0,0v0c-.127-.08,1.113.693.588.368h0l.019.009.038.018.155.069a5.335,5.335,0,0,0,.665.225l.353.087.18.039.092.017h.011l.005,0-.168-.041h.005l.022.008.044.015c.235.084.479.16.726.234l.75.213.19.052h0c-.321-.509.72,1.147-.718-1.145v.022l0,.024-.005.048-.008.1-.039.386c-.029.259-.061.514-.1.767l-.064.376,0,.022c.049-.152-.113.344.112-.341h0l0,0,0,0-.007.011-.024.041-.05.079-.1.158c-.138.208-.262.431-.39.668l-.193.363-.05.1-.026.047,0,.007h0c.025-.07-.213.616-.112.326h0v0l0,.014-.005.027-.04.216q-.144.559-.263,1.113l-.114.555-.054.277,0,.018h0c.639.6-1.434-1.344,1.434,1.351h0l.009,0,.035-.006.069-.015.139-.03c.371-.079.739-.161,1.107-.25l.275-.065c-.545.31.745-.422.613-.347v0l0,0,.007,0,.01-.014.024-.027.048-.052.094-.106.377-.42.753-.849.006-.009,0,0h0l.188-.271.007-.015.015-.034.03-.063.06-.131.12-.259.243-.521.248-.526.063-.132.032-.065.016-.035.008-.016,0-.008h0c-.018.046.152-.414.081-.22v0l.069-.285c.092-.382.19-.768.295-1.159l.068-.308.027-.152,0,0v0h0l.029-.183v-.143c0-.2-.017-.4-.031-.594-.03-.387-.072-.76-.1-1.122l0-.1v-.013h0c0,.043-.022-.381-.011-.2h0l0,0v-.006l-.005-.026-.009-.049-.035-.2-.051-.394c-.029-.258-.051-.5-.09-.714-.031-.166-.065-.326-.1-.479l-.014-.058,0-.013v-.01c.016.053-.153-.443-.082-.234h0v0l-.015-.025-.061-.1-.119-.194c-.162-.253-.326-.489-.49-.717.157.269.3.5.446.734l.11.18.055.093.028.047.005.006v0h0c.153.443.043.122.077.221h0v0l0,.013.007.028c.036.145.073.3.111.468.049.225-.026.157-.125,0-.049-.081-.106-.182-.157-.285l-.07-.149-.007-.016,0-.01,0,0h0c.048.14-.065-.188-.052-.153l0,0-.022-.028-.04-.051c-.1-.1-.005-.373-.1-.471a5.247,5.247,0,0,0-.516-.694c-.1-.1.079-.168.031-.217a1.845,1.845,0,0,0-.191-.234l-.051-.051-.012-.012-.007-.006-.077-.113h0l0,0-.031-.017-.118-.066a.873.873,0,0,1-.356-.284c-.112-.171-.21-.326-.308-.479a2.134,2.134,0,0,0-.216-.266l-.185-.14a.41.41,0,0,1-.083.207c-.091-.108-.075-.2-.26-.365.185.169.169.257.26.365a.41.41,0,0,0,.083-.207,17.385,17.385,0,0,0-1.639-.938l0,.02a2.8,2.8,0,0,1,.764.713c-.1-.127-.052-.157.1-.059l.052.157a1.481,1.481,0,0,1-.708-.568l-.2-.067c-.062-.08-.022-.123-.008-.175l-.172-.111a3.209,3.209,0,0,0,.348.528" fill="#846bad"/>
        <path id="패스_541" data-name="패스 541" d="M335.354,281.3c-.027-.041-.057-.088-.089-.142l.284.605c.028-.147-.082-.3-.194-.464" fill="#846bad"/>
      </g>
    </g>
    <path id="패스_542" data-name="패스 542" d="M311.261,311.873c-1.657,1.9-1.872.03-2.346.477-6.315-.906-12.649,7.332-7.569,5.864,5.886-2.2,9.7-6.994,11.005-7.687.2-2.677-3.225-4.45-3.359-1.8-.312,2,.25,6.03-.5,8.328-.9,6.47-3.857,6.061-4.617.111" fill="#8cbc29"/>
    <g id="그룹_336" data-name="그룹 336" opacity="0.5" style="mix-blend-mode: multiply;isolation: isolate">
      <g id="그룹_335" data-name="그룹 335">
        <rect id="사각형_122" data-name="사각형 122" width="13.047" height="13.677" transform="translate(299.864 308.594)" fill="none"/>
        <path id="패스_543" data-name="패스 543" d="M311.295,313.17c-.138-.034-.317.133-.455.107s-.231-.218-.364-.236-.264.014-.394,0-.258-.139-.39-.148-.276.153-.409.15-.267.035-.4.036-.276-.2-.41-.189-.262.175-.4.186-.279-.058-.414-.043-.274.028-.409.051-.267.082-.4.109-.255,0-.377.028-.266-.019-.386.011-.229.136-.351.17-.264.007-.385.045-.243.086-.363.126-.245.089-.363.133-.184.247-.3.294-.29-.027-.406.025-.151.3-.266.351-.283,0-.4.064-.231.114-.343.174-.289.014-.4.079-.225.127-.331.194-.212.148-.315.217-.163.211-.261.283-.236.1-.331.171-.076.333-.172.415-.2.154-.292.237-.22.123-.3.207-.142.208-.214.3-.27.117-.329.212c-.074.12-.05.285-.085.391a.653.653,0,0,0-.011.355c.02.119.092.166.2.242.082.053.139.221.275.246.105.021.239-.17.38-.172a2.686,2.686,0,0,0,.338.044c.106-.012.232.068.355.049.1-.018.231.065.343.04.129-.029.262-.058.391-.089s.234-.168.364-.2.214-.228.343-.265.3.059.424.018.242-.125.371-.17.23-.092.348-.135.268.009.384-.037.209-.155.326-.2.193-.187.309-.238.261-.029.376-.081.275,0,.389-.058.167-.239.281-.3.214-.139.328-.2.218-.129.331-.189.285-.007.395-.069.244-.09.353-.155.165-.228.275-.3.188-.182.3-.25.318.023.424-.048.157-.229.262-.3.168-.208.271-.28.244-.1.346-.173.274-.06.373-.138.209-.148.308-.227.108-.269.2-.351.3-.039.391-.122.163-.2.253-.28.193-.161.28-.246.027-.324.109-.41.295-.055.372-.142.126-.239.206-.336.109-.238.181-.337.2-.158.271-.255.231-.143.289-.24.094-.223.139-.321a2.739,2.739,0,0,0,.12-.308,1.759,1.759,0,0,0,.061-.4,1.417,1.417,0,0,0-.083-.411,1.373,1.373,0,0,0-.171-.368,1.49,1.49,0,0,0-.226-.313c-.088-.1-.126-.265-.236-.336s-.3.043-.421,0-.2-.257-.325-.271-.261.144-.394.163-.262-.044-.378,0-.277.047-.381.126-.115.268-.2.371a2.3,2.3,0,0,0-.209.319c-.061.105-.247.161-.3.285-.04.1.093.267.059.378s-.007.253-.032.389c-.023.121-.187.222-.2.355s-.063.252-.073.388-.009.256-.015.389-.023.256-.027.39.072.255.07.387.06.251.058.378-.189.255-.191.388.09.252.088.381-.11.255-.114.386.194.254.19.382.021.256.017.386-.24.249-.246.382.171.257.164.384-.087.251-.1.379-.125.25-.135.381.09.254.08.379-.066.244-.077.371-.063.248-.075.376.108.254.094.374-.161.225-.176.348.147.266.13.391c-.013.106-.186.192-.2.3-.018.131.11.285.088.41s-.076.269-.106.4-.059.261-.1.38-.107.254-.15.374-.075.269-.127.387-.188.208-.251.32-.082.264-.153.363-.223.159-.31.248-.222.113-.322.179-.159.237-.275.272a1.031,1.031,0,0,1-.378.012c-.124-.009-.212-.1-.334-.149a1.305,1.305,0,0,1-.339-.15c-.093-.077-.311-.049-.4-.156s-.016-.3-.087-.421-.1-.231-.156-.356c-.053-.106-.071-.23-.12-.353s-.168-.2-.208-.32-.1-.239-.135-.372-.081-.24-.112-.372c-.027-.117-.094-.233-.118-.36s0-.263-.02-.394-.033-.245-.05-.372-.08-.248-.093-.378.131-.257.121-.381c-.009-.108-.2-.2-.2-.317" fill="#28bef3"/>
      </g>
    </g>
    <g id="그룹_338" data-name="그룹 338" opacity="0.65">
      <g id="그룹_337" data-name="그룹 337">
        <rect id="사각형_123" data-name="사각형 123" width="14.512" height="15.991" transform="translate(298.562 306.456)" fill="none"/>
        <path id="패스_544" data-name="패스 544" d="M306.167,321.887l.3.466a1.233,1.233,0,0,1-.094-.274c-.049-.115-.123-.139-.208-.191" fill="#bccd19"/>
        <path id="패스_545" data-name="패스 545" d="M307.25,322.447l.082-.047.06-.06Z" fill="#bccd19"/>
        <path id="패스_546" data-name="패스 546" d="M308.022,321.906a2.9,2.9,0,0,0-.4.26,1.891,1.891,0,0,0,.4-.26" fill="#bccd19"/>
        <path id="패스_547" data-name="패스 547" d="M307.358,322.253c.066,0,.105.013.037.084l0,0,.225-.173a1.251,1.251,0,0,1-.259.087" fill="#bccd19"/>
        <path id="패스_548" data-name="패스 548" d="M307.358,322.253c-.063,0-.152.024-.188.025a.966.966,0,0,0,.188-.025" fill="#bccd19"/>
        <path id="패스_549" data-name="패스 549" d="M307.179,321.462c.067-.071.156.129.292-.01a8.929,8.929,0,0,1,.967-.783l.061-.046.017-.01h0c-.115.175.26-.387-.259.39v-.009l0-.009.016-.042a1.336,1.336,0,0,1,.092-.168.667.667,0,0,0,.127-.328c.019-.46-.059-1.659-.164-.981-.072.511-.123.932-.171,1.342l-.019.156v.016l.315-.472h0l-.016.012-.03.021-.061.043-.246.175-.524.362c-.288.227-.568.458-.85.685l-.107.086-.026.022-.007,0h0l.6.137h0v0h0l-.011-.013-.046-.053-.182-.21-.367-.43a4.882,4.882,0,0,1-.33-.522c.121.236.245.478.389.746a1.65,1.65,0,0,0,.442.486l.036.033.009.006.005,0h0c-1.016-.23-.282-.062-.509-.114v0h0l0,0,.016-.018.066-.072.141-.147a2.861,2.861,0,0,1,.326-.283" fill="#bccd19"/>
        <path id="패스_550" data-name="패스 550" d="M304.565,318.089l.148.262a2.893,2.893,0,0,0,.34,1.3l.044-.225c-.083-.248-.148-.259-.127-.023a5.5,5.5,0,0,0-.307-1.519c-.046.048-.11.059-.1.206" fill="#bccd19"/>
        <path id="패스_551" data-name="패스 551" d="M304.563,317.6l.1.285.014-.017-.112-.279Z" fill="#bccd19"/>
        <path id="패스_552" data-name="패스 552" d="M309.03,320.185c.087-.644.257-1.231.281-1.874q-.045-.918-.078-1.806a.409.409,0,0,1-.079-.277,1.276,1.276,0,0,0,.043-.286l-.05-.517-.038-.179,0,0c-.035-.094-.065-.063-.088,0a1.176,1.176,0,0,1-.054.191c.014-.037.031-.129.054-.191a1.342,1.342,0,0,0,.026-.285,3.2,3.2,0,0,1-.066-.49,2.085,2.085,0,0,1,.066.49l.064.289.028.081-.111-1.182c-.016-.089-.03-.173-.045-.243a1.359,1.359,0,0,1-.026-.746l-.014-.212-.015.043c0-.031.008-.057.012-.078l-.058-.9a5.4,5.4,0,0,1-.166-.575l.1-.205a.831.831,0,0,1-.117-.329c-.057.161-.121.312-.158.449-.1.209.24.44.066.69.174-.25-.168-.481-.066-.69.037-.137.1-.287.158-.449a2.209,2.209,0,0,1,.066-.948,1.516,1.516,0,0,1-.066.948.831.831,0,0,0,.117.329l-.1.205a5.4,5.4,0,0,0,.166.575c-.055-.587-.022-1.152-.039-1.766l0-.726,0-.18v-.11c.016-.049-.152.417-.079.219l.016-.017.029-.03.244-.253.963-1.006.476-.5.03-.03.015-.016.007-.007c.458,0-.621-.014-.51-.01l0,0,0,0,.057.066.112.134.225.265.9,1.061.225.266.057.067.029.033.006.009c.015.1-.123-.832-.065-.439v0l0,0-.009.021-.073.16-.3.638-.6,1.289a21.812,21.812,0,0,1-1.745,2.072c-.4.352-.795.7-1.186,1.043a11.03,11.03,0,0,1-1.214.827c-.868.523-1.743,1.16-2.54,1.711l-.306.214-.076.052-.037.025-.01.009-.005,0,0,0,.15-.091-.022.007-.169.069-.676.276q-.67.281-1.326.57l0,0c-.425.058.577-.078.472-.063H301.9l-.011,0-.022,0-.044-.007-.088-.018-.175-.03-.352-.063-.7-.126-.7-.122-.088-.016h-.008c1.228,2.768.342.766.616,1.382l.006-.01.012-.019.023-.038.094-.156.19-.311.767-1.237.2-.309.025-.039.012-.018,0,0-.214.251,0,0,.008-.007.073-.055.144-.108.582-.43c.345-.247.9-.651,1.092-.758.44-.218.888-.431,1.349-.635.176-.079.367-.175.568-.281l.153-.083.078-.042.019-.011.01,0,.005,0h0c-.518.245-.142.067-.258.121h0l.043-.011.356-.106c.483-.146,1-.318,1.512-.494.584-.214,2.268-.49,2.395-.578,1.974-.335.959-1.289.866-1.345a2.939,2.939,0,0,0-.886-.412,5.542,5.542,0,0,0-1.041.051c-.347.044-.729.105-1.183.157-.61.07-1,.213-1.662.29.839-.145.583.078-.09.336-.168.064-.364.132-.574.194a3.252,3.252,0,0,0-.431.143l-.315.161a6.456,6.456,0,0,1-1.292.479,2.771,2.771,0,0,0-1,.362,9.527,9.527,0,0,0-.851.522c-.282.193-.563.4-.844.625l-.106.084-.053.043-.013.01-.007,0h0c-.576.673-.16.187-.29.339l0,0-.017.029-.14.238-.278.488c-.185.328-.367.662-.55,1l-.137.252-.068.127-.036.062,0,.008c-.181-.405,1.569,3.536.83,1.868h.023l.035.006.553.071c.369.052.735.108,1.1.17l.27.052.134.025.066.013.017,0,0,0,.653-.087v0l.008,0,.031-.013.5-.2c.334-.124.669-.274,1.017-.434l.536-.25.069-.033.017-.007,0,0h0l.24-.148h0l.007-.008.031-.024.122-.1.251-.193c.458-.316.9-.637,1.346-.963.329-.235.871-.586,1.287-.881l.665-.465.082-.059.02-.015.011-.007.005,0h0c-.127.1.178-.145.148-.121l.036-.035.148-.141.295-.281,1.173-1.137.036-.035.018-.019.01-.009,0,0,.147-.164,0,0,.06-.082.121-.166.245-.335.489-.67.245-.338.124-.17.061-.083.03-.043.016-.02.008-.01,0,0c.069-.115-.151.255.155-.261l0-.006.333-.782.339-.787.171-.4.087-.2,0-.008c.185,1.241-.249-1.693-.206-1.393l0,0-.009-.01-.018-.021-.035-.04-.072-.08q-.573-.651-1.151-1.327l-.312-.345-.04-.04-.01-.012h0c.383.006-3.343-.053-1.766-.029h0l0,0-.005,0-.018.021-.071.088-.14.173c-.184.232-.357.464-.524.693s-.327.457-.486.682l-.235.332-.059.081-.007.009v0c-.516,1.428-.143.4-.258.714v0l0,.007,0,.024.007.052.03.2c.072.81-.021,1.567.035,2.323a20.5,20.5,0,0,0,.44,2.689c-.158-.956-.255-1.6-.393-2.626-.077-.683.315.45.417.9.065.188-.138.516-.072.7a7.971,7.971,0,0,0,.3,1.262c.068.186-.142.189-.107.284.111.6.464,1.084.414,1.42-.014.3-.032.578-.05.843a4.374,4.374,0,0,0,.016.509l.072.335a.421.421,0,0,1,.213-.163,2.587,2.587,0,0,1-.048.466,2.587,2.587,0,0,0,.048-.466.421.421,0,0,0-.213.163,12.418,12.418,0,0,1-.047,2.525l.022-.01a5.344,5.344,0,0,1,.387-1.488c-.084.215-.137.176-.105-.084l.137-.178a2.846,2.846,0,0,1-.261,1.315s.013.2.02.3c-.053.136-.117.116-.177.135l-.035.3a6.026,6.026,0,0,0,.386-.827" fill="#bccd19"/>
        <path id="패스_553" data-name="패스 553" d="M309.049,314.943c.015.07.03.155.046.245l-.089-.992a1.359,1.359,0,0,0,.043.747" fill="#bccd19"/>
      </g>
    </g>
    <path id="패스_554" data-name="패스 554" d="M295.928,300.306c.386.069.312.188.438.24a1.03,1.03,0,0,1,.53,1.14c-.005.116-.014.238-.011.362a7.518,7.518,0,0,1-1,1.189c-.527.63-1.975.631-2.483,1.566-2.208.791-2.972,1.271-5.587.339-.871-.31-2.205.01-2.061-3.23a7.8,7.8,0,0,0,.2-1.422,8.182,8.182,0,0,0,.336-1.958c0-.018,0-.037.005-.054.681-.543.7-1.089,1.033-1.378a7.417,7.417,0,0,1,1.617-1.213,10.367,10.367,0,0,0,2.79-1.109c.286-.161.636-.357.917-.5a1.548,1.548,0,0,0,.983.038c.316-.043.981-.831,1.174-1.1a2.3,2.3,0,0,0,.321-1.274,1.364,1.364,0,0,0-.059-.556,1.569,1.569,0,0,0-.749-1.318,4.051,4.051,0,0,0-2.42-.361c-.26.113-.556.271-.9.457a8.317,8.317,0,0,1-3.147,1.263,1.531,1.531,0,0,0-.32.082c-.441.171-1.452.68-1.875.8-1.346.386-2.3.978-3.3,3a5.187,5.187,0,0,0-1.363,3.282c-.034.307-.04.6-.045.855-.006.239-.012.437-.03.605a1.188,1.188,0,0,1-.13.48,1.426,1.426,0,0,0-.181.57,1.479,1.479,0,0,0,0,.3l.161,1.621c.314,3.318.492,4.169,3.2,5.938-.026-.016-.05-.034-.073-.051a8.867,8.867,0,0,0,5.706,2.172,19.809,19.809,0,0,0,6.79-1.722,7.1,7.1,0,0,0,1.031-.634,11.76,11.76,0,0,0,3.27-4.674,5.216,5.216,0,0,0,.6-2.1,3.224,3.224,0,0,0-.037-.875,8.021,8.021,0,0,0-.355-1.585,1.42,1.42,0,0,0-.317-.932l-.015-.019c-1.009-1.235-1.493-1.849-2.5-2.053a5.744,5.744,0,0,1-1.089-.328,1.534,1.534,0,0,0-.206-.061c-3.048-.693-4.993,1.233-7.388,3.216a1.449,1.449,0,0,0-.4.532,1.633,1.633,0,0,0,.532,2.157,2.489,2.489,0,0,0,2.611.129c.2-.219,1-.734,1.045-1a3.137,3.137,0,0,1,2.76-.83m-.861-8.883h0v.064l0-.03,0-.034M296.89,302.1c0,.074.364.469.376.545-.013-.087-.379-.47-.376-.545" fill="#0079c7"/>
    <g id="그룹_340" data-name="그룹 340" opacity="0.61">
      <g id="그룹_339" data-name="그룹 339">
        <rect id="사각형_124" data-name="사각형 124" width="17.877" height="19.052" transform="translate(281.691 290.741)" fill="none"/>
        <path id="패스_555" data-name="패스 555" d="M293.741,292.119c.194-.243.339-2.04-1.548-1.118s-3.644,1.905-4.746,1.953-3.6,1.391-4.019,2.844-1.474.2-1.621,4.948-.686,6.639,2.94,7.923,7.425,1.672,9.68.071a14.361,14.361,0,0,0,4.534-5.863c.368-1.235,1.391-4.4-.5-5.2s-4.969-.135-7.248,1.9-1,3.417.637,2.034.613-1.147,2.28-2.187,2.179-.744,3.281-.236.571,2.546-.162,3.661a26.826,26.826,0,0,0-2.484,3.9c-.343.993-1.43,1.227-4.689.623s-5.23.885-5.647-2.021-2.675-3.012-1.72-4.853.591-1.143,2.551-3.13,2.427-2.044,5.023-3.255,2.988-1.417,3.455-2" fill="#83207c"/>
      </g>
    </g>
    <g id="그룹_342" data-name="그룹 342" opacity="0.75">
      <g id="그룹_341" data-name="그룹 341">
        <rect id="사각형_125" data-name="사각형 125" width="18.822" height="18.077" transform="translate(281.659 291.143)" fill="none"/>
        <path id="패스_556" data-name="패스 556" d="M294.007,291.747h0c.207-.507-.739-1.09-1.982.074s-1.874,2.912-2.985,2.881-4.7-.12-5.161,1.883.1,4.132-.521,5.617-.841,5.545,2.46,5.964,5.449-1.3,7.9-1.749,5.789-.706,5.755-2.742-.619-1.485-.326-3.488-1.307-3.576-4.183-3.123a5.1,5.1,0,0,0-4.344,3.963c-.359,1.452.392.646.949-.452s2.7-1.566,3.88-1.7,4.893-.14,5.023,1.507-1.749,1.9-2.827,3.418-1.209,3.424-2.222,4.427-6.511,2.17-9.812-1.645-4.24-4.982-3.88-6.953,2.325-2.651,4.677-3.426.958-2.7,2.737-4.179c1.013-.842,3.643.937,4.862-.283" fill="#97c34f"/>
      </g>
    </g>
    <g id="그룹_344" data-name="그룹 344" opacity="0.55">
      <g id="그룹_343" data-name="그룹 343">
        <rect id="사각형_126" data-name="사각형 126" width="17.987" height="18.864" transform="translate(281.147 290.759)" fill="none"/>
        <path id="패스_557" data-name="패스 557" d="M294.311,291.755c-.63.067-.947-.193-2.123-.549s-3.757.453-5.064,2.778-.588,2.326-3.072,4.071-.2,3.618-.653,4.749-1.894,3.907.686,5.039,5.816.614,7.679.064,3.821-3,5.39-4.1,1.536-5.136.425-5.977-3.366-1.325-4.966,1.583-3.3,4.1-2.711,1.712,2.549-1.873,4.443-2.262,4.607-.839,4.77,1.874-.686,5.006-2.647,6.17-4.148,3.263-6.991,2.585a8.931,8.931,0,0,1-5.39-3.2c-1.373-1.548-3.2-2.034-2.908-4.877s1.764-3.812,2.809-4.975,2.732-1.662,5.019-2.115,3.052-2.7,3.8-3.377,2.711.68,1.5.808" fill="#00338a"/>
      </g>
    </g>
    <g id="그룹_346" data-name="그룹 346" opacity="0.65">
      <g id="그룹_345" data-name="그룹 345">
        <rect id="사각형_127" data-name="사각형 127" width="30.938" height="37.546" transform="translate(300.644 278.535)" fill="none"/>
        <path id="패스_558" data-name="패스 558" d="M318.955,315.7c-.105,1.106-3.419-.348-2.2-2.7s6.19-2.548,3.663-9.3c-1.026-2.743-.6-16.652-1.02-19.962-.223-1.767-.094-2.8-1.007-1.721s-11.688,10.712-14.8,13.6-4.451-1.749-.549-.662,4.937,3.737,7.985,5.3,8.8.731,13.01.431,9.423,1.92,6.863,3.066-9.516-1.935-13.052-4.406-10.844-1.02-12.978-1.8-4.043-4.673.407-7.566,13.993-11.649,14.826-11.455c1.77.411,1.53.456,1.592,5.639s.488,15.552-2.012,19.773-.549,9.824-.731,11.753" fill="#e10079"/>
      </g>
    </g>
    <g id="그룹_348" data-name="그룹 348" opacity="0.51">
      <g id="그룹_347" data-name="그룹 347">
        <rect id="사각형_128" data-name="사각형 128" width="28.779" height="37.306" transform="translate(302.049 278.074)" fill="none"/>
        <path id="패스_559" data-name="패스 559" d="M320.107,278.584c-.744.137-6.924,5.492-11.153,9.117-2.248,1.926-3.582,4.531-4.892,5.6-.507.411-2.013,1.64-2.013,2.222a.3.3,0,0,0,.005.061c.083.377,1.081.646,2.234.956.66.176,1.408.376,2.224.649-.359-.168-.663-.324-.873-.433-.618-.321-1.2-.656-1.626-.939-.615-.405-.75-.578-.75-.745,0-.011,0-.021,0-.033a.3.3,0,0,1,.328-.266l-.026,0c.772-.189,9.531-7.4,13.619-11.5l1.418-1.448c1.2-1.241,1.565-1.616,1.945-1.495.328.1.381.484.49,1.241.065.453.146,1.014.3,1.707.023.1.044.211.062.326v-.1c0-.526.433-1.063.446-1.543.011-.4,0-2.182,0-2.549a1.823,1.823,0,0,0-.773-1.338c-.025-.025-.911.506-.967.509m.567,19.625s-.184,1.887-.218,2.228l.1.031c.168-1.959.314-3.789.437-5.466-.109,1.154-.219,2.248-.318,3.207m-4.46,2.958a27.8,27.8,0,0,0,3.685,2.121l.221.071.063.094.053.09-.01.081a64.523,64.523,0,0,1-1.574,9.381,4.4,4.4,0,0,0-.223,1.276c0,.62.218.955.476,1.062a.39.39,0,0,0,.491-.123,4.275,4.275,0,0,0,.4-2.573,56.229,56.229,0,0,1,.3-7.094l.182-1.973.264-.155h.087a20.356,20.356,0,0,0,4.673-.528c-.549-.215-1.118-.455-1.712-.7-.956-.405-1.945-.824-2.892-1.143a4.424,4.424,0,0,0-.578-.153l-.228-.044,0-.052a8.769,8.769,0,0,0-1.342-.277c-1.326-.156-2.951-.439-4.692-.812.776.464,1.569.96,2.348,1.451M327.4,303s-.078.016-.093.017a4.4,4.4,0,0,0,.976.137,4.194,4.194,0,0,0,2.547-.66,1.516,1.516,0,0,0-.353-.032A22.625,22.625,0,0,0,327.4,303" fill="#ee94be"/>
      </g>
    </g>
    <g id="그룹_350" data-name="그룹 350" opacity="0.75">
      <g id="그룹_349" data-name="그룹 349">
        <rect id="사각형_129" data-name="사각형 129" width="13.174" height="20.598" transform="translate(335.595 293.48)" fill="none"/>
        <path id="패스_560" data-name="패스 560" d="M346.178,305.421c2.034-2.013,2.891-2.956,2.5-5.767a7.68,7.68,0,0,0-3.136-5.573c-1.52-1.067-6.274-.679-7.548.873s-.656,2.958,0,3.392c.442.29.1.726-.343,2.324s-1.471,3.926-1.96,5.575,1.029,2.422,1.812,4.6,5.049,4.263,7.695,2.665,2.7-3.634,2.254-4.991-1.862-2.519-1.273-3.1m.489,5.863c-.588.921-1.911,1.986-2.892,1.89s-4.851-.1-5.636-2.326-.735-3.3-1.617-4.072.244-1.744.244-1.744c.589-2.278,1.274-4.554,1.373-5.233s1.176-.485.539-1.793-.245-3.052.784-3.441,5.048-.92,6.763.775,2.548,4.362,1.912,6.2-6.763,2.193-3.872,3.89c1.34.786,2.99,4.93,2.4,5.851" fill="#e10079"/>
      </g>
    </g>
    <g id="그룹_352" data-name="그룹 352" opacity="0.37">
      <g id="그룹_351" data-name="그룹 351">
        <rect id="사각형_130" data-name="사각형 130" width="13.678" height="21.202" transform="translate(336.223 293.227)" fill="none"/>
        <path id="패스_561" data-name="패스 561" d="M347.859,295.631c-1.829-2.261-4.311-2.131-6.338-2.358s-4.7.323-3.888,2.649.732,3.249.131,4.3c-1.829,3.2-1.208,6.236-1.5,7.946s1.111,3.973,4.182,5.718,7.024-1.1,7.548-2.939-1.169-4-1.21-5.687c-.032-1.36,1.862-.84,2.744-3.1s.164-4.265-1.666-6.528m-2.468,8.445c-1.077.937.606,2.248,1.291,3.476s.851,3.393-.065,4.459a5.022,5.022,0,0,1-6.305.613c-2.418-1.745-3.92-3-3.1-5.428a20.843,20.843,0,0,0,.818-5.038c.034-1.39,1.241-2.521,1.274-3.263s-1.078-1.39-1.111-2.94,2.484-1.906,4.8-1.712,4.052.935,4.967,4.037-1.487,4.859-2.567,5.8" fill="#fe0"/>
      </g>
    </g>
    <g id="그룹_354" data-name="그룹 354" opacity="0.54">
      <g id="그룹_353" data-name="그룹 353">
        <rect id="사각형_131" data-name="사각형 131" width="29.712" height="37.203" transform="translate(302.234 279.783)" fill="none"/>
        <path id="패스_562" data-name="패스 562" d="M319.777,315.7c.062,1.186-2.133,2.351-1.1-.424a24.231,24.231,0,0,0,1.647-9.582c0-4.4-.366-3.315.182-10.85s.86-12.292.921-14.22-2.923-.091-4.263,1.114-10.434,10.816-12.262,11.72-4.39,3.374-1.037,4.039,6.766.542,9.021,2.229,5.3,4.038,9.083,3.858,6.279-1.085,8.291-.843,2.8,1.867-.976,1.628-5.608-1.75-8.229-2.471-5-.3-8.9-1.207-7.985-2.713-7.864-4.46-.731-4.039,2.194-4.823,9.2-4.641,11.156-6.751,3.475-4.05,4.323.181c1.35,6.716.858,13.923-2.556,19.651s.3,10.066.366,11.211" fill="#c2b2d7"/>
      </g>
    </g>
    <path id="패스_563" data-name="패스 563" d="M357.515,283.218h10.169v2.026q0,5.2-3.061,7.908a10.572,10.572,0,0,1-6.442,2.906l-1.826-1.32a9.738,9.738,0,0,0,5.579-2.66q2.221-2.171,2.22-6.589v-.415h-6.639Zm16.564,19.552h-3.332v-20.21h3.332Z" fill="#4e3074"/>
    <path id="패스_564" data-name="패스 564" d="M395.43,282.559V293.03H392.1v-4.638h-2.813a4.962,4.962,0,0,1-1.877,3.138,6.088,6.088,0,0,1-7.739-.22,4.778,4.778,0,0,1,0-7.25,5.749,5.749,0,0,1,3.987-1.5,5.9,5.9,0,0,1,3.581,1.122,5.019,5.019,0,0,1,1.974,2.855H392.1v-3.978Zm-13.392,2.83a3.792,3.792,0,0,0-.7,2.32,3.841,3.841,0,0,0,.691,2.319,1.989,1.989,0,0,0,1.628.951,2.022,2.022,0,0,0,1.642-.951,3.8,3.8,0,0,0,.7-2.319,3.851,3.851,0,0,0-.69-2.32,1.882,1.882,0,0,0-3.271,0m2.949,8.959v2.416h6.887v-2.416h3.333v8.421H384a2.375,2.375,0,0,1-1.7-.61,2.087,2.087,0,0,1-.641-1.585v-6.226Zm6.887,6.542,0-2.246h-6.887v2.246h6.887Z" fill="#4e3074"/>
    <path id="패스_565" data-name="패스 565" d="M399.873,283.218h11.108v1.856h-3.875v1.976a7.881,7.881,0,0,0,1.567,4.931,5.964,5.964,0,0,0,3.592,2.441l-1.629,1.416a5.993,5.993,0,0,1-3.209-1.367,5.3,5.3,0,0,1-2-2.612,5.087,5.087,0,0,1-1.987,2.6,6.3,6.3,0,0,1-3.221,1.378l-1.655-1.416a5.924,5.924,0,0,0,3.6-2.441,7.928,7.928,0,0,0,1.555-4.931v-1.976h-3.851Zm16.761,19.552H413.3v-20.21h3.331Z" fill="#4e3074"/>
    <path id="패스_566" data-name="패스 566" d="M433.346,291.493v1.758h-5.11v2.977H424.9V293.25h-4.543v-1.758Zm-3.184-7.812a3.731,3.731,0,0,1,1.457,2.953,3.693,3.693,0,0,1-1.457,2.941,5.851,5.851,0,0,1-7.123,0,3.68,3.68,0,0,1-1.469-2.941,3.717,3.717,0,0,1,1.469-2.953,5.81,5.81,0,0,1,7.123,0M427.4,300.89h11.429v1.879H426.385a2.414,2.414,0,0,1-1.653-.586,2.033,2.033,0,0,1-.666-1.61v-3.345H427.4Zm-2.086-15.963a3.019,3.019,0,0,0,0,3.417,1.589,1.589,0,0,0,1.3.684,1.566,1.566,0,0,0,1.271-.684,3.014,3.014,0,0,0,0-3.417,1.568,1.568,0,0,0-1.271-.684,1.591,1.591,0,0,0-1.3.684m12.825-2.368v15.377H434.8V296.08h-4.494v-1.634H434.8V282.559Z" fill="#4e3074"/>
    <path id="패스_567" data-name="패스 567" d="M461.359,293.055H442.477v-1.832h18.882ZM444.5,282.682h14.812v1.83h-2.395V288h2.615v1.805H444.279V288h2.64v-3.49H444.5Zm14.935,20.088H447.586a2.335,2.335,0,0,1-1.678-.61,2.084,2.084,0,0,1-.642-1.585V297.74h10.442v-1.391H445.043v-1.831h14V299.5H448.6v1.441h10.837Zm-9.182-18.258,0,3.49h3.331v-3.49h-3.331Z" fill="#787879"/>
    <path id="패스_568" data-name="패스 568" d="M470.914,288.587v-3.514h-6.344v-1.856h9.676v7.2h-6.123v3.54h7.405v1.879h-8.442a2.312,2.312,0,0,1-1.678-.6,2.09,2.09,0,0,1-.616-1.575v-5.076Zm10.318-6.028v20.21H477.9V290.076h-2.986V288.2H477.9v-5.638Z" fill="#787879"/>
    <path id="패스_569" data-name="패스 569" d="M503.6,299.767h-18.44v-1.879H503.6Zm-7.554-17.134v2.709a6.056,6.056,0,0,0,2.444,4.931,8.341,8.341,0,0,0,4.839,2.049l-1.481,1.417a9.955,9.955,0,0,1-4.482-1.209,5.71,5.71,0,0,1-3-2.843,5.537,5.537,0,0,1-2.976,2.857,10.093,10.093,0,0,1-4.5,1.195l-1.482-1.417a8.343,8.343,0,0,0,4.838-2.049,6.056,6.056,0,0,0,2.444-4.931v-2.709Z" fill="#787879"/>
    <path id="패스_570" data-name="패스 570" d="M372.127,311.064h2.524v3.707q-.287.092-.578.164c-.2.048-.4.089-.6.123s-.421.056-.648.073-.469.026-.729.026a3.672,3.672,0,0,1-1.452-.27,2.891,2.891,0,0,1-1.065-.776,3.4,3.4,0,0,1-.658-1.225,5.392,5.392,0,0,1-.224-1.621,4.934,4.934,0,0,1,.247-1.608,3.357,3.357,0,0,1,.723-1.223,3.164,3.164,0,0,1,1.172-.776,4.349,4.349,0,0,1,1.589-.271,5.367,5.367,0,0,1,1.113.114,4.46,4.46,0,0,1,.992.33l-.376.836c-.126-.058-.26-.114-.406-.165s-.293-.1-.446-.137-.311-.071-.473-.1a3.449,3.449,0,0,0-.483-.034,2.88,2.88,0,0,0-1.127.207,2.216,2.216,0,0,0-.824.6,2.688,2.688,0,0,0-.5.955,4.358,4.358,0,0,0-.171,1.27,4.869,4.869,0,0,0,.143,1.231,2.581,2.581,0,0,0,.456.96,2.1,2.1,0,0,0,.808.626,2.92,2.92,0,0,0,1.194.221c.152,0,.294,0,.42-.014a3.309,3.309,0,0,0,.352-.034c.108-.012.209-.029.3-.048s.189-.036.28-.055v-2.25h-1.553Z" fill="#4e3074"/>
    <path id="패스_571" data-name="패스 571" d="M381.015,312.21a4.111,4.111,0,0,1-.175,1.256,2.561,2.561,0,0,1-.5.925,2.167,2.167,0,0,1-.792.572,2.7,2.7,0,0,1-1.049.2,2.5,2.5,0,0,1-.994-.2,2.239,2.239,0,0,1-.789-.572,2.63,2.63,0,0,1-.518-.925,3.894,3.894,0,0,1-.186-1.256,4.08,4.08,0,0,1,.175-1.248,2.6,2.6,0,0,1,.5-.917,2.091,2.091,0,0,1,.794-.57,2.732,2.732,0,0,1,1.05-.192,2.523,2.523,0,0,1,1,.192,2.175,2.175,0,0,1,.788.57,2.7,2.7,0,0,1,.52.917,3.923,3.923,0,0,1,.184,1.248m-4.026,0a2.966,2.966,0,0,0,.36,1.624,1.293,1.293,0,0,0,1.167.545,1.279,1.279,0,0,0,1.162-.545,3.005,3.005,0,0,0,.356-1.624,2.929,2.929,0,0,0-.359-1.614,1.308,1.308,0,0,0-1.168-.536,1.292,1.292,0,0,0-1.163.536,2.959,2.959,0,0,0-.355,1.614" fill="#4e3074"/>
    <path id="패스_572" data-name="패스 572" d="M383.557,315.051l-1.961-5.663h.982l1.042,3.151c.037.114.083.259.134.439s.1.362.157.546.1.361.144.525a3.786,3.786,0,0,1,.085.378h.037c.017-.087.047-.212.089-.378s.088-.339.139-.525.105-.367.158-.546.1-.325.135-.439l1.037-3.151h.982l-1.956,5.663Z" fill="#4e3074"/>
    <path id="패스_573" data-name="패스 573" d="M389.9,315.158a2.828,2.828,0,0,1-1.051-.19,2.263,2.263,0,0,1-.817-.559,2.538,2.538,0,0,1-.532-.909,3.771,3.771,0,0,1-.187-1.237,4.21,4.21,0,0,1,.172-1.256,2.739,2.739,0,0,1,.486-.936,2.082,2.082,0,0,1,.75-.587,2.279,2.279,0,0,1,.965-.2,2.238,2.238,0,0,1,.929.184,1.919,1.919,0,0,1,.7.521,2.312,2.312,0,0,1,.443.805,3.373,3.373,0,0,1,.154,1.042v.587h-3.618a2.289,2.289,0,0,0,.426,1.449,1.483,1.483,0,0,0,1.189.467,4.215,4.215,0,0,0,.494-.028,3.341,3.341,0,0,0,.439-.075,3.178,3.178,0,0,0,.411-.122c.133-.051.267-.107.4-.167v.835c-.139.066-.277.121-.409.169a3.531,3.531,0,0,1-.415.119,3.6,3.6,0,0,1-.439.067c-.151.013-.316.021-.494.021m-.213-5.1a1.211,1.211,0,0,0-.96.406,1.98,1.98,0,0,0-.413,1.176h2.617a2.71,2.71,0,0,0-.072-.646,1.4,1.4,0,0,0-.223-.5,1.029,1.029,0,0,0-.385-.32,1.284,1.284,0,0,0-.564-.115" fill="#4e3074"/>
    <path id="패스_574" data-name="패스 574" d="M395.834,309.282c.1,0,.213,0,.338.012a2.736,2.736,0,0,1,.323.039l-.124.866c-.1-.016-.2-.031-.3-.044s-.2-.018-.29-.018a1.347,1.347,0,0,0-.6.133,1.365,1.365,0,0,0-.467.376,1.793,1.793,0,0,0-.3.588,2.57,2.57,0,0,0-.107.762v3.055h-.95v-5.663h.772l.114,1.034h.042c.087-.148.178-.291.277-.429a2.12,2.12,0,0,1,.333-.365,1.605,1.605,0,0,1,.416-.253,1.316,1.316,0,0,1,.519-.094" fill="#4e3074"/>
    <path id="패스_575" data-name="패스 575" d="M401.21,315.051V311.4a1.556,1.556,0,0,0-.275-1,1.045,1.045,0,0,0-.859-.337,1.669,1.669,0,0,0-.711.135,1.106,1.106,0,0,0-.461.4,1.778,1.778,0,0,0-.25.647,4.4,4.4,0,0,0-.076.878v2.935h-.95v-5.663h.772l.136.761h.052a1.6,1.6,0,0,1,.311-.384,1.81,1.81,0,0,1,.395-.271,1.835,1.835,0,0,1,.453-.16,2.388,2.388,0,0,1,.492-.051,1.932,1.932,0,0,1,1.439.491,2.192,2.192,0,0,1,.483,1.578v3.7Z" fill="#4e3074"/>
    <path id="패스_576" data-name="패스 576" d="M410.795,315.051V311.4a1.608,1.608,0,0,0-.262-1,.964.964,0,0,0-.812-.337,1.548,1.548,0,0,0-.646.123,1.084,1.084,0,0,0-.437.355,1.59,1.59,0,0,0-.247.585,3.679,3.679,0,0,0-.078.8v3.127h-.951V311.4a1.622,1.622,0,0,0-.259-1,.954.954,0,0,0-.808-.337,1.5,1.5,0,0,0-.673.135,1.046,1.046,0,0,0-.436.4,1.789,1.789,0,0,0-.235.647,4.749,4.749,0,0,0-.072.878v2.935h-.95v-5.663h.773l.135.761h.052a1.559,1.559,0,0,1,.3-.384,1.709,1.709,0,0,1,.378-.271,1.742,1.742,0,0,1,.438-.16,2.229,2.229,0,0,1,.473-.051,2.148,2.148,0,0,1,1.041.227,1.364,1.364,0,0,1,.613.712h.041a1.63,1.63,0,0,1,.328-.418,1.845,1.845,0,0,1,.418-.291,2,2,0,0,1,.478-.174,2.377,2.377,0,0,1,.512-.055,1.8,1.8,0,0,1,1.378.491,2.263,2.263,0,0,1,.462,1.578v3.7Z" fill="#4e3074"/>
    <path id="패스_577" data-name="패스 577" d="M415.777,315.158a2.831,2.831,0,0,1-1.051-.19,2.271,2.271,0,0,1-.817-.559,2.494,2.494,0,0,1-.531-.909,3.718,3.718,0,0,1-.188-1.237,4.21,4.21,0,0,1,.172-1.256,2.758,2.758,0,0,1,.487-.936,2.065,2.065,0,0,1,.75-.587,2.429,2.429,0,0,1,1.894-.016,1.936,1.936,0,0,1,.7.521,2.344,2.344,0,0,1,.443.805,3.342,3.342,0,0,1,.153,1.042v.587h-3.619a2.277,2.277,0,0,0,.427,1.449,1.485,1.485,0,0,0,1.191.467,4.236,4.236,0,0,0,.493-.028,3.355,3.355,0,0,0,.438-.075,3.225,3.225,0,0,0,.411-.122c.133-.051.268-.107.4-.167v.835c-.139.066-.276.121-.41.169a3.445,3.445,0,0,1-.413.119,3.672,3.672,0,0,1-.44.067c-.15.013-.316.021-.494.021m-.213-5.1a1.208,1.208,0,0,0-.96.406,1.973,1.973,0,0,0-.411,1.176h2.617a2.76,2.76,0,0,0-.073-.646,1.459,1.459,0,0,0-.223-.5,1.04,1.04,0,0,0-.386-.32,1.284,1.284,0,0,0-.564-.115" fill="#4e3074"/>
    <path id="패스_578" data-name="패스 578" d="M422.824,315.051V311.4a1.561,1.561,0,0,0-.275-1,1.044,1.044,0,0,0-.859-.337,1.669,1.669,0,0,0-.711.135,1.112,1.112,0,0,0-.461.4,1.8,1.8,0,0,0-.25.647,4.478,4.478,0,0,0-.076.878v2.935h-.95v-5.663h.772l.134.761h.053a1.672,1.672,0,0,1,.311-.384,1.853,1.853,0,0,1,.394-.271,1.88,1.88,0,0,1,.455-.16,2.388,2.388,0,0,1,.492-.051,1.927,1.927,0,0,1,1.437.491,2.187,2.187,0,0,1,.484,1.578v3.7Z" fill="#4e3074"/>
    <path id="패스_579" data-name="패스 579" d="M427.269,314.378c.065,0,.133,0,.212-.01s.156-.015.229-.026.139-.021.2-.036.108-.026.138-.036v.719a1.651,1.651,0,0,1-.172.063c-.069.021-.145.039-.229.055s-.171.026-.263.036-.178.013-.267.013a2.061,2.061,0,0,1-.6-.083,1.1,1.1,0,0,1-.478-.284,1.422,1.422,0,0,1-.317-.55,2.8,2.8,0,0,1-.114-.869v-3.306h-.816v-.4l.816-.388.407-1.188h.544v1.3h1.449v.678h-1.449v3.3a1.4,1.4,0,0,0,.165.757.6.6,0,0,0,.543.254" fill="#4e3074"/>
    <path id="패스_580" data-name="패스 580" d="M433.054,315.051h-.972V307.5h3.962v.847h-2.99v2.667h2.789v.849h-2.789Z" fill="#4e3074"/>
    <path id="패스_581" data-name="패스 581" d="M441.884,312.21a4.08,4.08,0,0,1-.176,1.256,2.545,2.545,0,0,1-.5.925,2.179,2.179,0,0,1-.793.572,2.7,2.7,0,0,1-1.048.2,2.5,2.5,0,0,1-.994-.2,2.222,2.222,0,0,1-.789-.572,2.666,2.666,0,0,1-.52-.925,3.953,3.953,0,0,1-.184-1.256,4.112,4.112,0,0,1,.174-1.248,2.558,2.558,0,0,1,.5-.917,2.084,2.084,0,0,1,.792-.57,2.742,2.742,0,0,1,1.052-.192,2.512,2.512,0,0,1,.994.192,2.2,2.2,0,0,1,.789.57,2.665,2.665,0,0,1,.519.917,3.9,3.9,0,0,1,.185,1.248m-4.027,0a2.974,2.974,0,0,0,.361,1.624,1.518,1.518,0,0,0,2.33,0,3.025,3.025,0,0,0,.354-1.624,2.91,2.91,0,0,0-.36-1.614,1.533,1.533,0,0,0-2.329,0,2.949,2.949,0,0,0-.356,1.614" fill="#4e3074"/>
    <path id="패스_582" data-name="패스 582" d="M445.853,309.282c.1,0,.211,0,.337.012a2.829,2.829,0,0,1,.325.039l-.126.866c-.1-.016-.2-.031-.3-.044s-.2-.018-.29-.018a1.35,1.35,0,0,0-.6.133,1.367,1.367,0,0,0-.465.376,1.838,1.838,0,0,0-.3.588,2.641,2.641,0,0,0-.1.762v3.055h-.951v-5.663h.772l.113,1.034h.043c.085-.148.179-.291.278-.429a2.162,2.162,0,0,1,.333-.365,1.621,1.621,0,0,1,.413-.253,1.342,1.342,0,0,1,.522-.094" fill="#4e3074"/>
    <path id="패스_583" data-name="패스 583" d="M450.561,307.5h2.079a6.059,6.059,0,0,1,1.176.1,2.378,2.378,0,0,1,.851.326,1.429,1.429,0,0,1,.513.589,2.1,2.1,0,0,1,.172.9,1.764,1.764,0,0,1-.1.6,1.44,1.44,0,0,1-.291.493,1.592,1.592,0,0,1-.471.355,1.988,1.988,0,0,1-.635.189v.052a3.661,3.661,0,0,1,.668.176,1.726,1.726,0,0,1,.545.32,1.447,1.447,0,0,1,.367.512,1.882,1.882,0,0,1,.135.754,2.344,2.344,0,0,1-.171.92,1.857,1.857,0,0,1-.489.686,2.232,2.232,0,0,1-.78.43,3.356,3.356,0,0,1-1.038.15h-2.531Zm.973,3.206h1.278a3.066,3.066,0,0,0,.739-.076,1.262,1.262,0,0,0,.483-.23.878.878,0,0,0,.265-.384,1.634,1.634,0,0,0,.082-.535,1,1,0,0,0-.4-.892,2.371,2.371,0,0,0-1.276-.268h-1.167Zm0,.821v2.707h1.383a2.422,2.422,0,0,0,.766-.1,1.285,1.285,0,0,0,.5-.288,1.067,1.067,0,0,0,.273-.441,1.921,1.921,0,0,0,.083-.573,1.557,1.557,0,0,0-.086-.527.975.975,0,0,0-.281-.412,1.338,1.338,0,0,0-.518-.268,2.883,2.883,0,0,0-.8-.094Z" fill="#4e3074"/>
    <path id="패스_584" data-name="패스 584" d="M460.78,315.051l-.139-.755h-.053a1.55,1.55,0,0,1-.312.383,1.737,1.737,0,0,1-.393.269,1.929,1.929,0,0,1-.455.158,2.318,2.318,0,0,1-.49.052,2.649,2.649,0,0,1-.837-.119,1.432,1.432,0,0,1-.6-.372,1.622,1.622,0,0,1-.361-.644,3.108,3.108,0,0,1-.124-.936v-3.7h.95v3.649a1.551,1.551,0,0,0,.278,1.006,1.043,1.043,0,0,0,.856.336,1.673,1.673,0,0,0,.711-.135,1.129,1.129,0,0,0,.462-.394,1.727,1.727,0,0,0,.25-.641,4.676,4.676,0,0,0,.076-.879v-2.941h.949v5.663Z" fill="#4e3074"/>
    <path id="패스_585" data-name="패스 585" d="M466.8,313.5a1.632,1.632,0,0,1-.151.724,1.4,1.4,0,0,1-.436.517,1.935,1.935,0,0,1-.687.314,3.692,3.692,0,0,1-.9.1,4.54,4.54,0,0,1-.977-.091,2.538,2.538,0,0,1-.715-.268v-.864c.106.055.225.109.358.162a4.331,4.331,0,0,0,.416.143,3.806,3.806,0,0,0,.447.1,2.786,2.786,0,0,0,.459.039,2.644,2.644,0,0,0,.574-.055,1.1,1.1,0,0,0,.383-.162.6.6,0,0,0,.215-.255.826.826,0,0,0,.069-.334.787.787,0,0,0-.054-.288.708.708,0,0,0-.187-.257,2.016,2.016,0,0,0-.377-.256c-.159-.085-.364-.182-.611-.289s-.474-.212-.672-.315a2.321,2.321,0,0,1-.506-.347,1.344,1.344,0,0,1-.319-.441,1.445,1.445,0,0,1-.11-.6,1.4,1.4,0,0,1,.142-.644,1.327,1.327,0,0,1,.406-.473,1.872,1.872,0,0,1,.627-.29,3.226,3.226,0,0,1,.813-.1,3.648,3.648,0,0,1,.927.108,4.57,4.57,0,0,1,.8.283l-.324.76a6.506,6.506,0,0,0-.688-.263,2.413,2.413,0,0,0-.72-.111,1.382,1.382,0,0,0-.776.175.555.555,0,0,0-.253.491.763.763,0,0,0,.059.315.661.661,0,0,0,.2.254,2.007,2.007,0,0,0,.386.24q.243.122.6.27c.246.1.468.206.662.311a2.253,2.253,0,0,1,.5.349,1.289,1.289,0,0,1,.316.442,1.486,1.486,0,0,1,.107.592" fill="#4e3074"/>
    <path id="패스_586" data-name="패스 586" d="M468.126,307.856a.52.52,0,0,1,.552-.588.7.7,0,0,1,.217.035.468.468,0,0,1,.177.1.533.533,0,0,1,.12.183.694.694,0,0,1,.044.266.538.538,0,0,1-.559.594.549.549,0,0,1-.392-.147.57.57,0,0,1-.16-.448m1.023,7.2h-.95v-5.663h.95Z" fill="#4e3074"/>
    <path id="패스_587" data-name="패스 587" d="M474.549,315.051V311.4a1.544,1.544,0,0,0-.274-1,1.049,1.049,0,0,0-.86-.337,1.657,1.657,0,0,0-.709.135,1.117,1.117,0,0,0-.463.4,1.833,1.833,0,0,0-.249.647,4.484,4.484,0,0,0-.075.878v2.935h-.952v-5.663h.773l.135.761h.052a1.577,1.577,0,0,1,.312-.384,1.757,1.757,0,0,1,.394-.271,1.843,1.843,0,0,1,.454-.16,2.385,2.385,0,0,1,.491-.051,1.926,1.926,0,0,1,1.438.491,2.187,2.187,0,0,1,.484,1.578v3.7Z" fill="#4e3074"/>
    <path id="패스_588" data-name="패스 588" d="M479.531,315.158a2.82,2.82,0,0,1-1.051-.19,2.279,2.279,0,0,1-.819-.559,2.518,2.518,0,0,1-.529-.909,3.742,3.742,0,0,1-.189-1.237,4.276,4.276,0,0,1,.171-1.256,2.738,2.738,0,0,1,.486-.936,2.1,2.1,0,0,1,.749-.587,2.294,2.294,0,0,1,.966-.2,2.239,2.239,0,0,1,.93.184,1.939,1.939,0,0,1,.7.521,2.347,2.347,0,0,1,.444.805,3.374,3.374,0,0,1,.151,1.042v.587h-3.618a2.3,2.3,0,0,0,.426,1.449,1.488,1.488,0,0,0,1.19.467,4.285,4.285,0,0,0,.495-.028,3.506,3.506,0,0,0,.44-.075,3.308,3.308,0,0,0,.41-.122c.132-.051.267-.107.4-.167v.835c-.14.066-.277.121-.412.169a3.443,3.443,0,0,1-.413.119,3.644,3.644,0,0,1-.442.067c-.149.013-.314.021-.491.021m-.213-5.1a1.208,1.208,0,0,0-.96.406,1.973,1.973,0,0,0-.413,1.176h2.617a2.709,2.709,0,0,0-.072-.646,1.514,1.514,0,0,0-.221-.5,1.055,1.055,0,0,0-.388-.32,1.285,1.285,0,0,0-.563-.115" fill="#4e3074"/>
    <path id="패스_589" data-name="패스 589" d="M486.428,313.5a1.632,1.632,0,0,1-.152.724,1.377,1.377,0,0,1-.436.517,1.93,1.93,0,0,1-.686.314,3.72,3.72,0,0,1-.9.1,4.51,4.51,0,0,1-.974-.091,2.51,2.51,0,0,1-.716-.268v-.864c.107.055.225.109.356.162s.272.1.416.143a3.868,3.868,0,0,0,.448.1,2.8,2.8,0,0,0,.459.039,2.632,2.632,0,0,0,.574-.055,1.1,1.1,0,0,0,.384-.162.6.6,0,0,0,.214-.255.809.809,0,0,0,.068-.334.787.787,0,0,0-.051-.288.74.74,0,0,0-.189-.257,1.918,1.918,0,0,0-.377-.256c-.159-.085-.363-.182-.612-.289s-.472-.212-.672-.315a2.441,2.441,0,0,1-.5-.347,1.28,1.28,0,0,1-.316-.441,1.428,1.428,0,0,1-.112-.6,1.4,1.4,0,0,1,.141-.644,1.338,1.338,0,0,1,.406-.473,1.871,1.871,0,0,1,.627-.29,3.22,3.22,0,0,1,.813-.1,3.683,3.683,0,0,1,.93.108,4.607,4.607,0,0,1,.8.283l-.326.76a6.1,6.1,0,0,0-.687-.263,2.41,2.41,0,0,0-.718-.111,1.389,1.389,0,0,0-.779.175.556.556,0,0,0-.253.491.763.763,0,0,0,.06.315.684.684,0,0,0,.2.254,2.039,2.039,0,0,0,.386.24c.162.081.365.171.6.27s.47.206.663.311a2.276,2.276,0,0,1,.5.349,1.33,1.33,0,0,1,.316.442,1.485,1.485,0,0,1,.108.592" fill="#4e3074"/>
    <path id="패스_590" data-name="패스 590" d="M491.256,313.5a1.619,1.619,0,0,1-.153.724,1.387,1.387,0,0,1-.436.517,1.932,1.932,0,0,1-.688.314,3.7,3.7,0,0,1-.9.1,4.56,4.56,0,0,1-.977-.091,2.537,2.537,0,0,1-.715-.268v-.864c.108.055.227.109.359.162a4.04,4.04,0,0,0,.415.143,3.823,3.823,0,0,0,.448.1,2.768,2.768,0,0,0,.459.039,2.628,2.628,0,0,0,.573-.055,1.1,1.1,0,0,0,.384-.162.612.612,0,0,0,.215-.255.809.809,0,0,0,.067-.334.69.69,0,0,0-.239-.545,1.994,1.994,0,0,0-.378-.256c-.157-.085-.363-.182-.611-.289s-.473-.212-.672-.315a2.283,2.283,0,0,1-.5-.347,1.339,1.339,0,0,1-.322-.441,1.462,1.462,0,0,1-.108-.6,1.4,1.4,0,0,1,.142-.644,1.342,1.342,0,0,1,.4-.473,1.9,1.9,0,0,1,.628-.29,3.214,3.214,0,0,1,.815-.1,3.662,3.662,0,0,1,.926.108,4.629,4.629,0,0,1,.8.283l-.325.76a6.357,6.357,0,0,0-.689-.263,2.4,2.4,0,0,0-.719-.111,1.386,1.386,0,0,0-.777.175.559.559,0,0,0-.253.491.8.8,0,0,0,.06.315.688.688,0,0,0,.2.254,2.1,2.1,0,0,0,.388.24q.242.122.6.27c.246.1.469.206.662.311a2.268,2.268,0,0,1,.5.349,1.325,1.325,0,0,1,.314.442,1.467,1.467,0,0,1,.11.592" fill="#4e3074"/>
  </g>
</svg>
